{"glyphs":{"0":{"ha":700,"x_min":0,"x_max":0,"o":"m 376 931 b 644 663 525 931 644 810 l 644 261 b 376 -7 644 114 525 -7 l 324 -7 b 56 261 176 -7 56 114 l 56 663 b 324 931 56 810 176 931 z m 376 836 l 324 836 b 201 785 278 836 235 818 b 150 663 168 751 150 708 l 150 261 b 201 139 150 215 168 172 b 324 88 235 106 278 88 l 376 88 b 500 139 424 88 467 106 b 550 261 532 172 550 215 l 550 663 b 500 785 550 708 532 751 b 376 836 467 818 424 836 z "},"1":{"ha":424,"x_min":0,"x_max":0,"o":"m 354 924 l 221 924 l 56 653 l 167 653 l 260 806 l 260 0 l 354 0 z "},"2":{"ha":621,"x_min":0,"x_max":0,"o":"m 518 0 l 518 94 l 150 94 b 160 203 150 124 151 163 b 297 367 179 294 225 349 b 481 457 371 385 435 415 b 565 644 536 507 565 571 b 286 924 565 799 440 924 l 108 924 l 108 829 l 286 829 b 469 644 388 829 469 746 b 275 458 469 524 347 476 b 67 219 165 432 93 350 b 58 42 47 128 58 44 l 64 0 z "},"3":{"ha":574,"x_min":0,"x_max":0,"o":"m 413 461 b 518 668 476 507 518 583 b 264 924 518 808 404 924 l 56 924 l 56 828 l 264 828 b 424 668 353 828 424 757 b 264 508 424 581 353 508 l 186 508 l 186 414 l 264 414 b 424 254 353 414 424 342 b 264 94 424 165 353 94 l 56 94 l 56 0 l 264 0 b 518 254 404 0 518 114 b 413 461 518 339 476 415 z "},"4":{"ha":700,"x_min":0,"x_max":0,"o":"m 521 483 l 428 483 l 428 338 l 194 338 l 443 922 l 340 922 l 56 243 l 428 243 l 428 -1 l 521 -1 l 521 243 l 644 243 l 644 338 l 521 338 z "},"5":{"ha":646,"x_min":0,"x_max":0,"o":"m 297 0 b 576 279 451 0 576 125 b 297 558 576 433 451 558 l 165 558 l 165 829 l 529 829 l 529 924 l 69 924 l 69 464 l 297 464 b 482 279 399 464 482 381 b 297 94 482 178 399 94 l 76 94 l 76 0 z "},"6":{"ha":672,"x_min":0,"x_max":0,"o":"m 336 557 b 249 542 306 557 276 551 l 411 924 l 308 924 l 79 390 b 56 275 64 356 56 318 b 336 -6 56 121 181 -6 b 617 275 492 -6 617 121 b 336 557 617 431 492 557 z m 336 90 b 150 275 232 90 150 172 b 336 461 150 379 232 461 b 522 275 439 461 522 379 b 336 90 522 172 439 90 z "},"7":{"ha":594,"x_min":0,"x_max":0,"o":"m 228 0 l 325 0 l 525 924 l 56 924 l 56 828 l 407 828 z "},"8":{"ha":665,"x_min":0,"x_max":0,"o":"m 586 381 b 481 503 564 433 526 475 b 546 776 560 568 589 679 b 332 917 508 864 422 917 b 239 897 301 917 269 910 b 119 590 122 846 68 708 b 185 503 135 556 157 526 b 79 158 71 432 24 286 b 333 -7 125 54 226 -7 b 443 15 369 -7 407 0 b 586 381 583 76 647 240 z m 203 735 b 276 811 217 768 243 796 b 332 822 294 818 314 822 l 333 822 b 461 739 388 822 439 790 b 463 632 475 704 476 667 b 389 556 449 597 422 571 b 354 546 378 550 367 547 b 332 546 347 546 340 546 l 311 546 b 206 628 265 553 224 583 b 203 735 190 661 189 700 z m 406 101 b 333 86 383 92 358 86 b 165 196 260 86 194 129 b 260 438 125 289 167 397 b 310 451 276 444 293 449 b 333 450 318 450 325 450 b 356 451 340 450 349 450 b 500 343 419 443 475 403 b 406 101 542 250 499 142 z "},"9":{"ha":672,"x_min":0,"x_max":0,"o":"m 336 367 b 424 382 367 367 396 372 l 261 0 l 364 0 l 593 533 b 617 649 608 568 617 606 b 336 929 617 803 492 929 b 56 649 181 929 56 803 b 336 367 56 493 181 367 z m 336 833 b 522 649 440 833 522 751 b 336 463 522 544 440 463 b 150 649 233 463 150 544 b 336 833 150 751 233 833 z "},"A":{"ha":878,"x_min":0,"x_max":0,"o":"m 721 0 l 822 0 l 499 922 l 379 922 l 56 0 l 157 0 l 276 340 l 601 340 z m 307 429 l 439 807 l 571 429 z "},"Á":{"ha":878,"x_min":0,"x_max":0,"o":"m 574 1218 l 476 1218 l 413 992 l 499 992 z m 721 0 l 822 0 l 499 922 l 379 922 l 56 0 l 157 0 l 276 340 l 601 340 z m 307 429 l 439 807 l 571 429 z "},"Ă":{"ha":878,"x_min":0,"x_max":0,"o":"m 439 1003 b 542 1035 474 1003 510 1014 b 626 1176 593 1068 622 1121 l 550 1176 b 500 1099 546 1146 528 1117 b 344 1131 449 1064 379 1078 b 326 1176 335 1144 329 1161 l 250 1176 b 281 1088 253 1146 263 1115 b 439 1003 317 1033 378 1003 z m 721 0 l 822 0 l 499 922 l 379 922 l 56 0 l 157 0 l 276 340 l 601 340 z m 307 429 l 439 807 l 571 429 z "},"Â":{"ha":878,"x_min":0,"x_max":0,"o":"m 442 1060 l 514 986 l 619 986 l 443 1168 l 258 986 l 367 986 z m 721 0 l 822 0 l 499 922 l 379 922 l 56 0 l 157 0 l 276 340 l 601 340 z m 307 429 l 439 807 l 571 429 z "},"Ä":{"ha":878,"x_min":0,"x_max":0,"o":"m 272 986 b 335 1047 307 986 335 1014 b 272 1108 335 1081 307 1108 b 211 1047 239 1108 211 1081 b 272 986 211 1014 239 986 z m 519 986 b 582 1047 554 986 582 1014 b 519 1108 582 1081 554 1108 b 458 1047 486 1108 458 1081 b 519 986 458 1014 486 986 z m 721 0 l 822 0 l 499 922 l 379 922 l 56 0 l 157 0 l 276 340 l 601 340 z m 307 429 l 439 807 l 571 429 z "},"À":{"ha":878,"x_min":0,"x_max":0,"o":"m 474 992 l 410 1218 l 313 1218 l 388 992 z m 721 0 l 822 0 l 499 922 l 379 922 l 56 0 l 157 0 l 276 340 l 601 340 z m 307 429 l 439 807 l 571 429 z "},"Ā":{"ha":878,"x_min":0,"x_max":0,"o":"m 661 1090 l 215 1090 l 215 1021 l 661 1021 z m 721 0 l 822 0 l 499 922 l 379 922 l 56 0 l 157 0 l 276 340 l 601 340 z m 307 429 l 439 807 l 571 429 z "},"Ą":{"ha":878,"x_min":0,"x_max":0,"o":"m 843 -192 b 769 -215 813 -225 774 -217 b 722 -140 736 -207 715 -174 b 781 -87 728 -112 751 -90 b 814 -87 794 -85 814 -87 l 815 0 l 822 0 l 499 922 l 379 922 l 56 0 l 157 0 l 276 340 l 601 340 l 721 0 l 742 0 l 740 -19 b 649 -126 693 -36 658 -75 b 751 -290 633 -199 679 -272 b 796 -293 758 -292 774 -294 b 899 -243 825 -292 865 -282 z m 307 429 l 439 807 l 571 429 z "},"Å":{"ha":878,"x_min":0,"x_max":0,"o":"m 439 974 b 508 994 463 974 486 981 b 543 1169 565 1033 582 1111 b 369 1204 506 1226 426 1243 b 315 1125 342 1186 322 1158 b 333 1031 308 1092 315 1058 b 439 974 358 994 397 974 z m 371 1114 b 400 1157 375 1132 385 1147 b 439 1168 413 1165 425 1168 b 496 1138 461 1168 482 1157 b 476 1043 517 1106 508 1064 b 381 1063 444 1022 401 1031 b 371 1114 371 1078 368 1096 z m 721 0 l 822 0 l 499 922 l 379 922 l 56 0 l 157 0 l 276 340 l 601 340 z m 307 429 l 439 807 l 571 429 z "},"Ã":{"ha":878,"x_min":0,"x_max":0,"o":"m 293 982 b 347 1028 303 999 324 1028 b 422 1001 372 1026 397 1014 b 542 971 457 983 497 963 b 653 1064 583 979 618 1010 l 590 1113 b 526 1049 571 1074 553 1051 b 458 1071 508 1046 486 1057 b 350 1106 428 1086 392 1104 b 263 1068 318 1107 288 1094 b 225 1019 247 1054 235 1038 l 288 969 b 293 982 289 974 292 978 z m 721 0 l 822 0 l 499 922 l 379 922 l 56 0 l 157 0 l 276 340 l 601 340 z m 307 429 l 439 807 l 571 429 z "},"Æ":{"ha":1103,"x_min":0,"x_max":0,"o":"m 636 828 l 1047 828 l 1047 922 l 379 922 l 56 0 l 157 0 l 275 338 l 542 338 l 542 -1 l 1047 -1 l 1047 93 l 636 93 l 636 413 l 913 413 l 913 507 l 636 507 z m 308 432 l 439 807 l 446 828 l 542 828 l 542 432 z "},"B":{"ha":685,"x_min":0,"x_max":0,"o":"m 504 475 b 596 671 560 522 596 592 b 340 926 596 811 481 926 l 142 926 l 142 925 l 69 925 l 69 0 l 374 0 b 629 254 515 0 629 114 b 504 475 629 349 579 431 z m 500 671 b 340 510 500 582 428 510 l 164 510 l 164 831 l 340 831 b 500 671 428 831 500 758 z m 374 94 l 164 94 l 164 415 l 374 415 b 535 254 463 415 535 343 b 374 94 535 167 463 94 z "},"C":{"ha":932,"x_min":0,"x_max":0,"o":"m 522 -8 b 876 156 658 -8 789 51 l 804 217 b 522 88 733 135 631 88 b 151 458 318 88 151 254 b 522 832 151 663 318 832 b 804 703 631 832 733 785 l 876 764 b 522 928 789 869 658 928 b 56 458 264 928 56 717 b 522 -8 56 200 264 -8 z "},"Ć":{"ha":932,"x_min":0,"x_max":0,"o":"m 510 1218 l 446 992 l 532 992 l 607 1218 z m 522 -8 b 876 156 658 -8 789 51 l 804 217 b 522 88 733 135 631 88 b 151 458 318 88 151 254 b 522 832 151 663 318 832 b 804 703 631 832 733 785 l 876 764 b 522 928 789 869 658 928 b 56 458 264 928 56 717 b 522 -8 56 200 264 -8 z "},"Č":{"ha":932,"x_min":0,"x_max":0,"o":"m 544 1168 l 472 1094 l 397 1168 l 289 1168 l 474 986 l 650 1168 z m 522 -8 b 876 156 658 -8 789 51 l 804 217 b 522 88 733 135 631 88 b 151 458 318 88 151 254 b 522 832 151 663 318 832 b 804 703 631 832 733 785 l 876 764 b 522 928 789 869 658 928 b 56 458 264 928 56 717 b 522 -8 56 200 264 -8 z "},"Ç":{"ha":932,"x_min":0,"x_max":0,"o":"m 522 88 b 151 458 318 88 151 254 b 522 832 151 663 318 832 b 804 703 631 832 733 785 l 876 764 b 522 928 789 869 658 928 b 56 458 264 928 56 717 b 419 3 56 235 211 50 l 404 -36 l 432 -101 b 457 -96 440 -99 447 -96 b 518 -158 490 -96 518 -125 b 457 -219 518 -192 490 -219 b 415 -204 442 -219 426 -214 l 367 -257 b 457 -292 392 -279 424 -292 b 590 -158 531 -292 590 -232 b 483 -28 590 -94 544 -40 l 492 -7 b 522 -8 501 -8 513 -8 b 876 156 658 -8 789 51 l 804 217 b 522 88 733 135 631 88 z "},"D":{"ha":821,"x_min":0,"x_max":0,"o":"m 303 0 b 765 463 558 0 765 207 b 303 925 765 718 558 925 l 69 925 l 69 0 z m 165 94 l 165 831 l 303 831 b 671 463 506 831 671 665 b 303 94 671 260 506 94 z "},"Ð":{"ha":876,"x_min":0,"x_max":0,"o":"m 303 925 l 69 925 l 69 504 l 56 504 l 56 421 l 69 421 l 69 0 l 303 0 b 765 463 558 0 765 207 b 303 925 765 718 558 925 z m 165 831 l 303 831 b 668 504 492 831 647 688 l 165 504 z m 303 94 l 165 94 l 165 421 l 668 421 b 303 94 647 238 492 94 z "},"Ď":{"ha":821,"x_min":0,"x_max":0,"o":"m 483 1168 l 411 1094 l 336 1168 l 228 1168 l 413 986 l 589 1168 z m 303 0 b 765 463 558 0 765 207 b 303 925 765 718 558 925 l 69 925 l 69 0 z m 165 94 l 165 831 l 303 831 b 671 463 506 831 671 665 b 303 94 671 260 506 94 z "},"Đ":{"ha":821,"x_min":0,"x_max":0,"o":"m 303 925 l 69 925 l 69 522 l -64 522 l -64 431 l 69 431 l 69 0 l 303 0 b 765 463 558 0 765 207 b 303 925 765 718 558 925 z m 303 94 l 165 94 l 165 431 l 310 431 l 310 522 l 165 522 l 165 831 l 303 831 b 671 463 506 831 671 665 b 303 94 671 260 506 94 z "},"E":{"ha":644,"x_min":0,"x_max":0,"o":"m 575 829 l 575 924 l 69 924 l 69 0 l 575 0 l 575 94 l 164 94 l 164 417 l 440 417 l 440 506 l 164 506 l 164 829 z "},"É":{"ha":644,"x_min":0,"x_max":0,"o":"m 450 1218 l 353 1218 l 289 992 l 375 992 z m 575 829 l 575 924 l 69 924 l 69 0 l 575 0 l 575 94 l 164 94 l 164 417 l 440 417 l 440 506 l 164 506 l 164 829 z "},"Ě":{"ha":644,"x_min":0,"x_max":0,"o":"m 493 1168 l 388 1168 l 315 1094 l 240 1168 l 132 1168 l 317 986 z m 575 829 l 575 924 l 69 924 l 69 0 l 575 0 l 575 94 l 164 94 l 164 417 l 440 417 l 440 506 l 164 506 l 164 829 z "},"Ê":{"ha":644,"x_min":0,"x_max":0,"o":"m 318 1060 l 390 986 l 496 986 l 319 1168 l 135 986 l 243 986 z m 575 829 l 575 924 l 69 924 l 69 0 l 575 0 l 575 94 l 164 94 l 164 417 l 440 417 l 440 506 l 164 506 l 164 829 z "},"Ë":{"ha":644,"x_min":0,"x_max":0,"o":"m 149 986 b 211 1047 183 986 211 1014 b 149 1108 211 1081 183 1108 b 88 1047 115 1108 88 1081 b 149 986 88 1014 115 986 z m 396 986 b 458 1047 431 986 458 1014 b 396 1108 458 1081 431 1108 b 335 1047 363 1108 335 1081 b 396 986 335 1014 363 986 z m 575 829 l 575 924 l 69 924 l 69 0 l 575 0 l 575 94 l 164 94 l 164 417 l 440 417 l 440 506 l 164 506 l 164 829 z "},"Ė":{"ha":644,"x_min":0,"x_max":0,"o":"m 272 986 b 335 1047 307 986 335 1014 b 272 1108 335 1081 307 1108 b 211 1047 239 1108 211 1081 b 272 986 211 1014 239 986 z m 575 829 l 575 924 l 69 924 l 69 0 l 575 0 l 575 94 l 164 94 l 164 417 l 440 417 l 440 506 l 164 506 l 164 829 z "},"È":{"ha":644,"x_min":0,"x_max":0,"o":"m 350 992 l 286 1218 l 189 1218 l 264 992 z m 575 829 l 575 924 l 69 924 l 69 0 l 575 0 l 575 94 l 164 94 l 164 417 l 440 417 l 440 506 l 164 506 l 164 829 z "},"Ē":{"ha":644,"x_min":0,"x_max":0,"o":"m 538 1090 l 92 1090 l 92 1021 l 538 1021 z m 575 829 l 575 924 l 69 924 l 69 0 l 575 0 l 575 94 l 164 94 l 164 417 l 440 417 l 440 506 l 164 506 l 164 829 z "},"Ę":{"ha":644,"x_min":0,"x_max":0,"o":"m 603 -187 b 529 -211 572 -221 533 -212 b 482 -136 496 -203 475 -169 b 540 -83 488 -108 511 -86 b 574 -83 554 -81 574 -83 l 575 0 l 575 94 l 164 94 l 164 417 l 440 417 l 440 506 l 164 506 l 164 829 l 575 829 l 575 924 l 69 924 l 69 0 l 501 0 l 500 -15 b 408 -122 453 -32 418 -71 b 511 -286 393 -194 439 -268 b 556 -289 518 -287 533 -290 b 658 -239 585 -287 625 -278 z "},"F":{"ha":631,"x_min":0,"x_max":0,"o":"m 575 829 l 575 924 l 69 924 l 69 0 l 163 0 l 163 414 l 440 414 l 440 508 l 163 508 l 163 829 z "},"G":{"ha":963,"x_min":0,"x_max":0,"o":"m 665 435 l 665 340 l 800 340 l 799 219 b 518 90 728 138 626 90 b 294 167 438 90 358 118 b 164 361 231 217 185 285 b 190 621 140 449 150 542 b 346 783 224 690 279 747 b 653 800 444 835 557 838 b 799 697 708 779 758 743 l 871 758 b 585 917 796 846 693 901 b 293 863 485 931 382 911 b 101 657 210 815 142 743 b 68 354 56 564 44 456 b 110 240 76 315 92 276 b 736 49 231 14 511 -71 b 800 89 760 61 781 74 b 893 185 836 117 867 149 l 893 435 z "},"Ģ":{"ha":963,"x_min":0,"x_max":0,"o":"m 665 435 l 665 340 l 800 340 l 799 219 b 518 90 728 138 626 90 b 294 167 438 90 358 118 b 164 361 231 217 185 285 b 190 621 140 449 150 542 b 346 783 224 690 279 747 b 653 800 444 835 557 838 b 799 697 708 779 758 743 l 871 758 b 585 917 796 846 693 901 b 293 863 485 931 382 911 b 101 657 210 815 142 743 b 68 354 56 564 44 456 b 110 240 76 315 92 276 b 449 0 182 106 310 22 l 447 0 l 390 -211 l 476 -211 l 544 -4 b 736 49 610 -1 675 17 b 800 89 760 61 781 74 b 893 185 836 117 867 149 l 893 435 z "},"H":{"ha":757,"x_min":0,"x_max":0,"o":"m 594 924 l 594 508 l 164 508 l 164 924 l 69 924 l 69 0 l 164 0 l 164 414 l 594 414 l 594 0 l 688 0 l 688 924 z "},"I":{"ha":233,"x_min":0,"x_max":0,"o":"m 69 924 l 69 0 l 164 0 l 164 924 z "},"Í":{"ha":293,"x_min":0,"x_max":0,"o":"m 140 1218 l 76 992 l 163 992 l 238 1218 z m 69 924 l 69 0 l 164 0 l 164 924 z "},"Î":{"ha":472,"x_min":0,"x_max":0,"o":"m 311 986 l 417 986 l 240 1168 l 56 986 l 164 986 l 239 1060 z m 189 924 l 189 0 l 283 0 l 283 924 z "},"Ï":{"ha":482,"x_min":0,"x_max":0,"o":"m 117 986 b 56 1047 83 986 56 1014 b 117 1108 56 1081 83 1108 b 179 1047 151 1108 179 1081 b 117 986 179 1014 151 986 z m 364 986 b 303 1047 331 986 303 1014 b 364 1108 303 1081 331 1108 b 426 1047 399 1108 426 1081 b 364 986 426 1014 399 986 z m 194 924 l 194 0 l 289 0 l 289 924 z "},"Ì":{"ha":292,"x_min":0,"x_max":0,"o":"m 153 1218 l 56 1218 l 131 992 l 217 992 z m 128 924 l 128 0 l 222 0 l 222 924 z "},"Ī":{"ha":557,"x_min":0,"x_max":0,"o":"m 501 1021 l 501 1090 l 56 1090 l 56 1021 z m 232 924 l 232 0 l 326 0 l 326 924 z "},"Į":{"ha":233,"x_min":0,"x_max":0,"o":"m 194 -187 b 121 -211 164 -221 125 -212 b 74 -136 88 -203 67 -169 b 132 -83 79 -108 103 -86 b 165 -83 146 -81 165 -83 l 167 10 l 164 10 l 164 924 l 69 924 l 69 0 l 93 0 l 92 -15 b 0 -122 44 -32 10 -71 b 103 -286 -15 -194 31 -268 b 147 -289 110 -287 125 -290 b 250 -239 176 -287 217 -278 z "},"J":{"ha":379,"x_min":0,"x_max":0,"o":"m 56 94 l 56 0 b 310 254 196 0 310 114 l 310 924 l 215 924 l 215 254 b 56 94 215 167 143 94 z "},"K":{"ha":685,"x_min":0,"x_max":0,"o":"m 501 0 l 629 0 l 221 454 l 621 922 l 496 922 l 158 528 l 158 922 l 69 922 l 69 0 l 158 0 l 158 381 z "},"Ķ":{"ha":685,"x_min":0,"x_max":0,"o":"m 221 454 l 621 922 l 496 922 l 158 528 l 158 922 l 69 922 l 69 0 l 158 0 l 158 381 l 501 0 l 629 0 z m 249 -211 l 335 -211 l 404 0 l 306 0 z "},"L":{"ha":522,"x_min":0,"x_max":0,"o":"m 165 94 l 165 924 l 69 924 l 69 0 l 467 0 l 467 94 z "},"Ĺ":{"ha":522,"x_min":0,"x_max":0,"o":"m 260 1218 l 163 1218 l 99 992 l 185 992 z m 165 94 l 165 924 l 69 924 l 69 0 l 467 0 l 467 94 z "},"Ľ":{"ha":522,"x_min":0,"x_max":0,"o":"m 303 1168 l 197 1168 l 125 1094 l 50 1168 l -58 1168 l 126 986 z m 165 94 l 165 924 l 69 924 l 69 0 l 467 0 l 467 94 z "},"Ļ":{"ha":522,"x_min":0,"x_max":0,"o":"m 165 94 l 165 924 l 69 924 l 69 0 l 226 0 l 169 -211 l 256 -211 l 325 0 l 467 0 l 467 94 z "},"Ł":{"ha":669,"x_min":0,"x_max":0,"o":"m 313 94 l 313 356 l 578 849 l 471 849 l 313 554 l 313 924 l 217 924 l 217 376 l 56 76 l 163 76 l 217 178 l 217 0 l 614 0 l 614 94 z "},"M":{"ha":1032,"x_min":0,"x_max":0,"o":"m 844 924 l 515 447 l 186 924 l 69 924 l 69 0 l 164 0 l 164 789 l 475 339 l 556 339 l 867 789 l 867 3 l 963 3 l 963 924 z "},"N":{"ha":813,"x_min":0,"x_max":0,"o":"m 649 924 l 649 157 l 169 924 l 69 924 l 69 0 l 165 0 l 165 746 l 631 0 l 743 0 l 743 924 z "},"Ń":{"ha":813,"x_min":0,"x_max":0,"o":"m 444 1218 l 381 992 l 467 992 l 542 1218 z m 649 924 l 649 157 l 169 924 l 69 924 l 69 0 l 165 0 l 165 746 l 631 0 l 743 0 l 743 924 z "},"Ň":{"ha":813,"x_min":0,"x_max":0,"o":"m 479 1168 l 407 1094 l 332 1168 l 224 1168 l 408 986 l 585 1168 z m 649 924 l 649 157 l 169 924 l 69 924 l 69 0 l 165 0 l 165 746 l 631 0 l 743 0 l 743 924 z "},"Ņ":{"ha":813,"x_min":0,"x_max":0,"o":"m 649 924 l 649 157 l 169 924 l 69 924 l 69 0 l 165 0 l 165 746 l 631 0 l 743 0 l 743 924 z m 471 0 l 372 0 l 315 -211 l 401 -211 z "},"Ñ":{"ha":813,"x_min":0,"x_max":0,"o":"m 558 1113 b 494 1049 539 1074 521 1051 b 426 1071 476 1046 454 1057 b 318 1106 396 1086 360 1104 b 231 1068 286 1107 256 1094 b 193 1019 215 1054 203 1038 l 256 969 b 261 982 257 974 260 978 b 315 1028 271 999 292 1028 b 390 1001 340 1026 365 1014 b 510 971 425 983 465 963 b 621 1064 551 979 586 1010 z m 649 924 l 649 157 l 169 924 l 69 924 l 69 0 l 165 0 l 165 746 l 631 0 l 743 0 l 743 924 z "},"O":{"ha":1038,"x_min":0,"x_max":0,"o":"m 518 -7 b 982 456 774 -7 982 200 b 518 919 982 711 774 919 b 56 456 263 919 56 711 b 518 -7 56 200 263 -7 z m 518 88 b 150 456 315 88 150 253 b 518 824 150 658 315 824 b 886 456 721 824 886 658 b 518 88 886 253 721 88 z "},"Ó":{"ha":1038,"x_min":0,"x_max":0,"o":"m 557 1218 l 493 992 l 579 992 l 654 1218 z m 518 -7 b 982 456 774 -7 982 200 b 518 919 982 711 774 919 b 56 456 263 919 56 711 b 518 -7 56 200 263 -7 z m 518 88 b 150 456 315 88 150 253 b 518 824 150 658 315 824 b 886 456 721 824 886 658 b 518 88 886 253 721 88 z "},"Ô":{"ha":1038,"x_min":0,"x_max":0,"o":"m 594 986 l 700 986 l 524 1168 l 339 986 l 447 986 l 522 1060 z m 518 -7 b 982 456 774 -7 982 200 b 518 919 982 711 774 919 b 56 456 263 919 56 711 b 518 -7 56 200 263 -7 z m 518 88 b 150 456 315 88 150 253 b 518 824 150 658 315 824 b 886 456 721 824 886 658 b 518 88 886 253 721 88 z "},"Ö":{"ha":1038,"x_min":0,"x_max":0,"o":"m 353 986 b 292 1047 319 986 292 1014 b 353 1108 292 1081 319 1108 b 415 1047 388 1108 415 1081 b 353 986 415 1014 388 986 z m 600 986 b 539 1047 567 986 539 1014 b 600 1108 539 1081 567 1108 b 663 1047 635 1108 663 1081 b 600 986 663 1014 635 986 z m 518 -7 b 982 456 774 -7 982 200 b 518 919 982 711 774 919 b 56 456 263 919 56 711 b 518 -7 56 200 263 -7 z m 518 88 b 150 456 315 88 150 253 b 518 824 150 658 315 824 b 886 456 721 824 886 658 b 518 88 886 253 721 88 z "},"Ò":{"ha":1038,"x_min":0,"x_max":0,"o":"m 490 1218 l 393 1218 l 468 992 l 554 992 z m 518 -7 b 982 456 774 -7 982 200 b 518 919 982 711 774 919 b 56 456 263 919 56 711 b 518 -7 56 200 263 -7 z m 518 88 b 150 456 315 88 150 253 b 518 824 150 658 315 824 b 886 456 721 824 886 658 b 518 88 886 253 721 88 z "},"Ő":{"ha":1038,"x_min":0,"x_max":0,"o":"m 478 1217 l 414 990 l 500 990 l 575 1217 z m 635 1217 l 571 990 l 657 990 l 732 1217 z m 518 -7 b 982 456 774 -7 982 200 b 518 919 982 711 774 919 b 56 456 263 919 56 711 b 518 -7 56 200 263 -7 z m 518 88 b 150 456 315 88 150 253 b 518 824 150 658 315 824 b 886 456 721 824 886 658 b 518 88 886 253 721 88 z "},"Ō":{"ha":1038,"x_min":0,"x_max":0,"o":"m 742 1021 l 742 1090 l 296 1090 l 296 1021 z m 518 -7 b 982 456 774 -7 982 200 b 518 919 982 711 774 919 b 56 456 263 919 56 711 b 518 -7 56 200 263 -7 z m 518 88 b 150 456 315 88 150 253 b 518 824 150 658 315 824 b 886 456 721 824 886 658 b 518 88 886 253 721 88 z "},"Ø":{"ha":1038,"x_min":0,"x_max":0,"o":"m 775 842 l 821 925 l 714 925 l 693 885 b 518 919 639 907 579 919 b 56 456 263 919 56 711 b 257 74 56 297 135 157 l 217 0 l 324 0 l 339 29 b 518 -7 394 6 454 -7 b 982 456 774 -7 982 200 b 775 842 982 615 900 758 z m 150 456 b 518 824 150 658 315 824 b 647 800 564 824 607 815 l 301 158 b 150 456 210 225 150 333 z m 518 88 b 385 113 471 88 426 96 l 731 756 b 886 456 825 689 886 579 b 518 88 886 253 721 88 z "},"Õ":{"ha":1038,"x_min":0,"x_max":0,"o":"m 671 1113 b 607 1049 651 1074 633 1051 b 539 1071 589 1046 567 1057 b 431 1106 508 1086 472 1104 b 343 1068 399 1107 368 1094 b 306 1019 328 1054 315 1038 l 368 969 b 374 982 369 974 372 978 b 428 1028 383 999 404 1028 b 503 1001 453 1026 478 1014 b 622 971 538 983 578 963 b 733 1064 664 979 699 1010 z m 518 -7 b 982 456 774 -7 982 200 b 518 919 982 711 774 919 b 56 456 263 919 56 711 b 518 -7 56 200 263 -7 z m 518 88 b 150 456 315 88 150 253 b 518 824 150 658 315 824 b 886 456 721 824 886 658 b 518 88 886 253 721 88 z "},"Œ":{"ha":1449,"x_min":0,"x_max":0,"o":"m 1393 829 l 1393 924 l 888 924 l 888 736 b 518 919 803 847 668 919 b 56 456 263 919 56 711 b 518 -7 56 200 263 -7 b 888 176 668 -7 803 65 l 888 0 l 1393 0 l 1393 94 l 982 94 l 982 417 l 1258 417 l 1258 506 l 982 506 l 982 829 z m 518 88 b 150 456 315 88 150 253 b 518 824 150 658 315 824 b 886 456 721 824 886 658 b 518 88 886 253 721 88 z "},"P":{"ha":681,"x_min":0,"x_max":0,"o":"m 328 924 l 69 924 l 69 0 l 165 0 l 165 333 l 328 333 b 625 628 490 333 625 465 b 328 924 625 790 490 924 z m 328 426 l 165 426 l 165 828 l 328 828 b 529 628 439 828 529 739 b 328 426 529 517 439 426 z "},"Þ":{"ha":681,"x_min":0,"x_max":0,"o":"m 328 757 l 165 757 l 165 924 l 69 924 l 69 0 l 165 0 l 165 167 l 328 167 b 625 461 490 167 625 299 b 328 757 625 624 490 757 z m 328 260 l 165 260 l 165 661 l 328 661 b 529 461 439 661 529 572 b 328 260 529 350 439 260 z "},"Q":{"ha":1038,"x_min":0,"x_max":0,"o":"m 982 463 b 518 926 982 718 774 926 b 56 463 263 926 56 718 b 518 0 56 207 263 0 l 522 0 l 982 0 l 982 94 l 799 94 b 982 463 910 179 982 313 z m 150 463 b 518 831 150 665 315 831 b 886 463 721 831 886 665 b 518 94 886 260 721 94 b 150 463 315 94 150 260 z "},"R":{"ha":656,"x_min":0,"x_max":0,"o":"m 306 332 b 600 626 468 332 600 464 b 306 922 600 790 468 922 l 69 922 l 69 0 l 165 0 l 165 332 l 174 332 l 472 0 l 600 0 l 301 332 z m 306 828 b 506 626 415 828 506 738 b 306 426 506 517 415 426 l 165 426 l 165 828 z "},"Ŕ":{"ha":656,"x_min":0,"x_max":0,"o":"m 463 1218 l 365 1218 l 301 992 l 388 992 z m 306 332 b 600 626 468 332 600 464 b 306 922 600 790 468 922 l 69 922 l 69 0 l 165 0 l 165 332 l 174 332 l 472 0 l 600 0 l 301 332 z m 306 828 b 506 626 415 828 506 738 b 306 426 506 517 415 426 l 165 426 l 165 828 z "},"Ř":{"ha":656,"x_min":0,"x_max":0,"o":"m 506 1168 l 400 1168 l 328 1094 l 253 1168 l 144 1168 l 329 986 z m 306 332 b 600 626 468 332 600 464 b 306 922 600 790 468 922 l 69 922 l 69 0 l 165 0 l 165 332 l 174 332 l 472 0 l 600 0 l 301 332 z m 306 828 b 506 626 415 828 506 738 b 306 426 506 517 415 426 l 165 426 l 165 828 z "},"Ŗ":{"ha":656,"x_min":0,"x_max":0,"o":"m 306 332 b 600 626 468 332 600 464 b 306 922 600 790 468 922 l 69 922 l 69 0 l 165 0 l 165 332 l 174 332 l 472 0 l 600 0 l 301 332 z m 306 828 b 506 626 415 828 506 738 b 306 426 506 517 415 426 l 165 426 l 165 828 z m 236 -211 l 322 -211 l 392 0 l 293 0 z "},"S":{"ha":744,"x_min":0,"x_max":0,"o":"m 589 654 l 685 654 b 376 926 668 793 581 925 l 375 926 b 158 850 281 926 208 900 b 86 663 111 804 86 738 b 353 411 86 510 176 426 b 593 254 554 394 593 342 b 403 88 593 161 517 94 b 210 143 319 83 253 103 b 151 257 181 171 160 208 l 56 257 b 144 74 65 181 96 118 b 379 -8 201 19 282 -8 b 611 75 468 -8 551 17 b 689 254 661 122 689 186 b 590 446 689 340 656 406 b 361 507 539 479 468 497 b 182 663 268 514 182 538 b 225 783 182 692 188 744 b 376 831 257 815 308 831 b 556 747 461 831 519 803 b 589 656 575 718 585 685 z "},"Ś":{"ha":744,"x_min":0,"x_max":0,"o":"m 410 1218 l 346 992 l 432 992 l 507 1218 z m 589 654 l 685 654 b 376 926 668 793 581 925 l 375 926 b 158 850 281 926 208 900 b 86 663 111 804 86 738 b 353 411 86 510 176 426 b 593 254 554 394 593 342 b 403 88 593 161 517 94 b 210 143 319 83 253 103 b 151 257 181 171 160 208 l 56 257 b 144 74 65 181 96 118 b 379 -8 201 19 282 -8 b 611 75 468 -8 551 17 b 689 254 661 122 689 186 b 590 446 689 340 656 406 b 361 507 539 479 468 497 b 182 663 268 514 182 538 b 225 783 182 692 188 744 b 376 831 257 815 308 831 b 556 747 461 831 519 803 b 589 656 575 718 585 685 z "},"Š":{"ha":744,"x_min":0,"x_max":0,"o":"m 444 1168 l 372 1094 l 297 1168 l 189 1168 l 374 986 l 550 1168 z m 589 654 l 685 654 b 376 926 668 793 581 925 l 375 926 b 158 850 281 926 208 900 b 86 663 111 804 86 738 b 353 411 86 510 176 426 b 593 254 554 394 593 342 b 403 88 593 161 517 94 b 210 143 319 83 253 103 b 151 257 181 171 160 208 l 56 257 b 144 74 65 181 96 118 b 379 -8 201 19 282 -8 b 611 75 468 -8 551 17 b 689 254 661 122 689 186 b 590 446 689 340 656 406 b 361 507 539 479 468 497 b 182 663 268 514 182 538 b 225 783 182 692 188 744 b 376 831 257 815 308 831 b 556 747 461 831 519 803 b 589 656 575 718 585 685 z "},"Ş":{"ha":744,"x_min":0,"x_max":0,"o":"m 590 446 b 361 507 539 479 468 497 b 182 663 268 514 182 538 b 225 783 182 692 188 744 b 376 831 257 815 308 831 b 556 747 461 831 519 803 b 589 656 575 718 585 685 l 589 654 l 685 654 b 376 926 668 793 581 925 l 375 926 b 158 850 281 926 208 900 b 86 663 111 804 86 738 b 353 411 86 510 176 426 b 593 254 554 394 593 342 b 403 88 593 161 517 94 b 210 143 319 83 253 103 b 151 257 181 171 160 208 l 56 257 b 144 74 65 181 96 118 b 317 -4 189 32 247 6 l 304 -36 l 332 -101 b 357 -96 340 -99 347 -96 b 418 -158 390 -96 418 -125 b 357 -219 418 -192 390 -219 b 315 -204 342 -219 326 -214 l 267 -257 b 357 -292 292 -279 324 -292 b 490 -158 431 -292 490 -232 b 383 -28 490 -94 444 -40 l 392 -8 b 611 75 475 -6 554 19 b 689 254 661 122 689 186 b 590 446 689 340 656 406 z "},"T":{"ha":681,"x_min":0,"x_max":0,"o":"m 625 924 l 56 924 l 56 831 l 293 831 l 293 0 l 388 0 l 388 831 l 625 831 z "},"Ŧ":{"ha":681,"x_min":0,"x_max":0,"o":"m 690 504 l 388 504 l 388 831 l 625 831 l 625 924 l 56 924 l 56 831 l 293 831 l 293 504 l -10 504 l -10 421 l 293 421 l 293 0 l 388 0 l 388 421 l 690 421 z "},"Ť":{"ha":681,"x_min":0,"x_max":0,"o":"m 518 1168 l 413 1168 l 340 1094 l 265 1168 l 157 1168 l 342 986 z m 625 924 l 56 924 l 56 831 l 293 831 l 293 0 l 388 0 l 388 831 l 625 831 z "},"Ţ":{"ha":681,"x_min":0,"x_max":0,"o":"m 388 0 l 388 831 l 625 831 l 625 924 l 56 924 l 56 831 l 293 831 l 293 17 l 272 -36 l 300 -101 b 325 -96 308 -99 315 -96 b 386 -158 358 -96 386 -125 b 325 -219 386 -192 358 -219 b 283 -204 310 -219 294 -214 l 235 -257 b 325 -292 260 -279 292 -292 b 458 -158 399 -292 458 -232 b 351 -28 458 -94 413 -40 l 363 0 z "},"U":{"ha":783,"x_min":0,"x_max":0,"o":"m 392 -10 b 714 313 569 -10 714 136 l 714 924 l 622 924 l 622 313 b 392 86 622 185 519 86 b 163 313 264 86 163 185 l 163 924 l 69 924 l 69 313 b 392 -10 69 136 214 -10 z "},"Ú":{"ha":783,"x_min":0,"x_max":0,"o":"m 429 1218 l 365 992 l 451 992 l 526 1218 z m 392 -10 b 714 313 569 -10 714 136 l 714 924 l 622 924 l 622 313 b 392 86 622 185 519 86 b 163 313 264 86 163 185 l 163 924 l 69 924 l 69 313 b 392 -10 69 136 214 -10 z "},"Û":{"ha":783,"x_min":0,"x_max":0,"o":"m 467 986 l 572 986 l 396 1168 l 211 986 l 319 986 l 394 1060 z m 392 -10 b 714 313 569 -10 714 136 l 714 924 l 622 924 l 622 313 b 392 86 622 185 519 86 b 163 313 264 86 163 185 l 163 924 l 69 924 l 69 313 b 392 -10 69 136 214 -10 z "},"Ü":{"ha":783,"x_min":0,"x_max":0,"o":"m 225 986 b 164 1047 192 986 164 1014 b 225 1108 164 1081 192 1108 b 288 1047 260 1108 288 1081 b 225 986 288 1014 260 986 z m 472 986 b 411 1047 439 986 411 1014 b 472 1108 411 1081 439 1108 b 535 1047 507 1108 535 1081 b 472 986 535 1014 507 986 z m 392 -10 b 714 313 569 -10 714 136 l 714 924 l 622 924 l 622 313 b 392 86 622 185 519 86 b 163 313 264 86 163 185 l 163 924 l 69 924 l 69 313 b 392 -10 69 136 214 -10 z "},"Ù":{"ha":783,"x_min":0,"x_max":0,"o":"m 363 1218 l 265 1218 l 340 992 l 426 992 z m 392 -10 b 714 313 569 -10 714 136 l 714 924 l 622 924 l 622 313 b 392 86 622 185 519 86 b 163 313 264 86 163 185 l 163 924 l 69 924 l 69 313 b 392 -10 69 136 214 -10 z "},"Ű":{"ha":783,"x_min":0,"x_max":0,"o":"m 350 1217 l 286 990 l 372 990 l 447 1217 z m 507 1217 l 443 990 l 529 990 l 604 1217 z m 392 -10 b 714 313 569 -10 714 136 l 714 924 l 622 924 l 622 313 b 392 86 622 185 519 86 b 163 313 264 86 163 185 l 163 924 l 69 924 l 69 313 b 392 -10 69 136 214 -10 z "},"Ū":{"ha":783,"x_min":0,"x_max":0,"o":"m 614 1021 l 614 1090 l 168 1090 l 168 1021 z m 392 -10 b 714 313 569 -10 714 136 l 714 924 l 622 924 l 622 313 b 392 86 622 185 519 86 b 163 313 264 86 163 185 l 163 924 l 69 924 l 69 313 b 392 -10 69 136 214 -10 z "},"Ų":{"ha":783,"x_min":0,"x_max":0,"o":"m 622 924 l 622 313 b 392 86 622 185 519 86 b 163 313 264 86 163 185 l 163 924 l 69 924 l 69 313 b 364 -8 69 146 199 6 l 364 -15 b 272 -122 317 -32 282 -71 b 375 -286 257 -194 303 -268 b 419 -289 382 -287 397 -290 b 522 -239 449 -287 489 -278 l 467 -187 b 393 -211 436 -221 397 -212 b 346 -136 360 -203 339 -169 b 404 -83 351 -108 375 -86 b 438 -83 418 -81 438 -83 l 439 -7 b 714 313 594 17 714 151 l 714 924 z "},"Ů":{"ha":783,"x_min":0,"x_max":0,"o":"m 392 974 b 461 994 415 974 439 981 b 496 1169 518 1033 535 1111 b 322 1204 458 1226 379 1243 b 268 1125 294 1186 275 1158 b 286 1031 261 1092 268 1058 b 392 974 311 994 350 974 z m 392 1168 b 449 1138 414 1168 435 1157 b 429 1043 469 1106 461 1064 b 333 1063 397 1022 354 1031 b 324 1114 324 1078 321 1096 b 353 1157 328 1132 338 1147 b 392 1168 365 1165 378 1168 z m 392 -10 b 714 313 569 -10 714 136 l 714 924 l 622 924 l 622 313 b 392 86 622 185 519 86 b 163 313 264 86 163 185 l 163 924 l 69 924 l 69 313 b 392 -10 69 136 214 -10 z "},"V":{"ha":876,"x_min":0,"x_max":0,"o":"m 499 1 l 821 925 l 721 925 l 439 118 l 157 925 l 56 925 l 378 1 z "},"W":{"ha":1286,"x_min":0,"x_max":0,"o":"m 157 925 l 56 925 l 388 0 l 492 0 l 646 443 l 806 0 l 908 0 l 1231 925 l 1129 925 l 857 139 l 696 585 l 574 925 l 472 925 l 594 585 l 439 139 z "},"Ẃ":{"ha":1286,"x_min":0,"x_max":0,"o":"m 681 1218 l 617 992 l 703 992 l 778 1218 z m 157 925 l 56 925 l 388 0 l 492 0 l 646 443 l 806 0 l 908 0 l 1231 925 l 1129 925 l 857 139 l 696 585 l 574 925 l 472 925 l 594 585 l 439 139 z "},"Ŵ":{"ha":1286,"x_min":0,"x_max":0,"o":"m 718 986 l 824 986 l 647 1168 l 463 986 l 571 986 l 646 1060 z m 157 925 l 56 925 l 388 0 l 492 0 l 646 443 l 806 0 l 908 0 l 1231 925 l 1129 925 l 857 139 l 696 585 l 574 925 l 472 925 l 594 585 l 439 139 z "},"Ẅ":{"ha":1286,"x_min":0,"x_max":0,"o":"m 476 986 b 415 1047 443 986 415 1014 b 476 1108 415 1081 443 1108 b 539 1047 511 1108 539 1081 b 476 986 539 1014 511 986 z m 724 986 b 663 1047 690 986 663 1014 b 724 1108 663 1081 690 1108 b 786 1047 758 1108 786 1081 b 724 986 786 1014 758 986 z m 157 925 l 56 925 l 388 0 l 492 0 l 646 443 l 806 0 l 908 0 l 1231 925 l 1129 925 l 857 139 l 696 585 l 574 925 l 472 925 l 594 585 l 439 139 z "},"Ẁ":{"ha":1286,"x_min":0,"x_max":0,"o":"m 614 1218 l 517 1218 l 592 992 l 678 992 z m 157 925 l 56 925 l 388 0 l 492 0 l 646 443 l 806 0 l 908 0 l 1231 925 l 1129 925 l 857 139 l 696 585 l 574 925 l 472 925 l 594 585 l 439 139 z "},"X":{"ha":792,"x_min":0,"x_max":0,"o":"m 736 924 l 625 924 l 396 551 l 167 924 l 56 924 l 340 461 l 56 0 l 167 0 l 396 371 l 624 0 l 736 0 l 451 463 z "},"Y":{"ha":778,"x_min":0,"x_max":0,"o":"m 722 924 l 617 924 l 389 458 l 161 924 l 56 924 l 342 338 l 342 0 l 438 0 l 438 340 z "},"Ý":{"ha":778,"x_min":0,"x_max":0,"o":"m 426 1218 l 363 992 l 449 992 l 524 1218 z m 722 924 l 617 924 l 389 458 l 161 924 l 56 924 l 342 338 l 342 0 l 438 0 l 438 340 z "},"Ŷ":{"ha":778,"x_min":0,"x_max":0,"o":"m 464 986 l 569 986 l 393 1168 l 208 986 l 317 986 l 392 1060 z m 722 924 l 617 924 l 389 458 l 161 924 l 56 924 l 342 338 l 342 0 l 438 0 l 438 340 z "},"Ÿ":{"ha":778,"x_min":0,"x_max":0,"o":"m 222 986 b 161 1047 189 986 161 1014 b 222 1108 161 1081 189 1108 b 285 1047 257 1108 285 1081 b 222 986 285 1014 257 986 z m 469 986 b 408 1047 436 986 408 1014 b 469 1108 408 1081 436 1108 b 532 1047 504 1108 532 1081 b 469 986 532 1014 504 986 z m 722 924 l 617 924 l 389 458 l 161 924 l 56 924 l 342 338 l 342 0 l 438 0 l 438 340 z "},"Ỳ":{"ha":778,"x_min":0,"x_max":0,"o":"m 360 1218 l 263 1218 l 338 992 l 424 992 z m 722 924 l 617 924 l 389 458 l 161 924 l 56 924 l 342 338 l 342 0 l 438 0 l 438 340 z "},"Z":{"ha":739,"x_min":0,"x_max":0,"o":"m 683 96 l 174 96 l 683 829 l 683 924 l 56 924 l 56 829 l 567 829 l 56 92 l 56 0 l 683 0 z "},"Ź":{"ha":739,"x_min":0,"x_max":0,"o":"m 407 1218 l 343 992 l 429 992 l 504 1218 z m 683 96 l 174 96 l 683 829 l 683 924 l 56 924 l 56 829 l 567 829 l 56 92 l 56 0 l 683 0 z "},"Ž":{"ha":739,"x_min":0,"x_max":0,"o":"m 442 1168 l 369 1094 l 294 1168 l 186 1168 l 371 986 l 547 1168 z m 683 96 l 174 96 l 683 829 l 683 924 l 56 924 l 56 829 l 567 829 l 56 92 l 56 0 l 683 0 z "},"Ż":{"ha":739,"x_min":0,"x_max":0,"o":"m 326 986 b 265 1047 293 986 265 1014 b 326 1108 265 1081 293 1108 b 389 1047 361 1108 389 1081 b 326 986 389 1014 361 986 z m 683 96 l 174 96 l 683 829 l 683 924 l 56 924 l 56 829 l 567 829 l 56 92 l 56 0 l 683 0 z "},"a":{"ha":826,"x_min":0,"x_max":0,"o":"m 661 676 l 661 563 b 406 692 633 607 556 692 b 56 342 211 692 56 536 b 406 -7 56 149 211 -7 b 661 128 507 -7 596 36 l 661 0 l 757 0 l 757 676 z m 406 88 b 150 342 264 88 150 201 b 406 597 150 483 264 597 b 660 342 546 597 660 483 b 406 88 660 201 546 88 z "},"á":{"ha":826,"x_min":0,"x_max":0,"o":"m 451 989 l 388 763 l 474 763 l 549 989 z m 661 676 l 661 563 b 406 692 633 607 556 692 b 56 342 211 692 56 536 b 406 -7 56 149 211 -7 b 661 128 507 -7 596 36 l 661 0 l 757 0 l 757 676 z m 406 88 b 150 342 264 88 150 201 b 406 597 150 483 264 597 b 660 342 546 597 660 483 b 406 88 660 201 546 88 z "},"ă":{"ha":826,"x_min":0,"x_max":0,"o":"m 525 947 b 475 869 521 917 503 888 b 319 901 424 835 354 849 b 301 947 310 915 304 932 l 225 947 b 256 858 228 917 238 886 b 414 774 292 804 353 774 b 517 806 449 774 485 785 b 601 947 568 839 597 892 z m 661 676 l 661 563 b 406 692 633 607 556 692 b 56 342 211 692 56 536 b 406 -7 56 149 211 -7 b 661 128 507 -7 596 36 l 661 0 l 757 0 l 757 676 z m 406 88 b 150 342 264 88 150 201 b 406 597 150 483 264 597 b 660 342 546 597 660 483 b 406 88 660 201 546 88 z "},"â":{"ha":826,"x_min":0,"x_max":0,"o":"m 489 757 l 594 757 l 418 939 l 233 757 l 342 757 l 417 831 z m 661 676 l 661 563 b 406 692 633 607 556 692 b 56 342 211 692 56 536 b 406 -7 56 149 211 -7 b 661 128 507 -7 596 36 l 661 0 l 757 0 l 757 676 z m 406 88 b 150 342 264 88 150 201 b 406 597 150 483 264 597 b 660 342 546 597 660 483 b 406 88 660 201 546 88 z "},"ä":{"ha":826,"x_min":0,"x_max":0,"o":"m 247 757 b 186 818 214 757 186 785 b 247 879 186 851 214 879 b 310 818 282 879 310 851 b 247 757 310 785 282 757 z m 494 757 b 433 818 461 757 433 785 b 494 879 433 851 461 879 b 557 818 529 879 557 851 b 494 757 557 785 529 757 z m 661 676 l 661 563 b 406 692 633 607 556 692 b 56 342 211 692 56 536 b 406 -7 56 149 211 -7 b 661 128 507 -7 596 36 l 661 0 l 757 0 l 757 676 z m 406 88 b 150 342 264 88 150 201 b 406 597 150 483 264 597 b 660 342 546 597 660 483 b 406 88 660 201 546 88 z "},"à":{"ha":826,"x_min":0,"x_max":0,"o":"m 385 989 l 288 989 l 363 763 l 449 763 z m 661 676 l 661 563 b 406 692 633 607 556 692 b 56 342 211 692 56 536 b 406 -7 56 149 211 -7 b 661 128 507 -7 596 36 l 661 0 l 757 0 l 757 676 z m 406 88 b 150 342 264 88 150 201 b 406 597 150 483 264 597 b 660 342 546 597 660 483 b 406 88 660 201 546 88 z "},"ā":{"ha":826,"x_min":0,"x_max":0,"o":"m 636 792 l 636 861 l 190 861 l 190 792 z m 661 676 l 661 563 b 406 692 633 607 556 692 b 56 342 211 692 56 536 b 406 -7 56 149 211 -7 b 661 128 507 -7 596 36 l 661 0 l 757 0 l 757 676 z m 406 88 b 150 342 264 88 150 201 b 406 597 150 483 264 597 b 660 342 546 597 660 483 b 406 88 660 201 546 88 z "},"ą":{"ha":826,"x_min":0,"x_max":0,"o":"m 778 -189 b 704 -212 747 -222 708 -214 b 657 -137 671 -204 650 -171 b 715 -85 663 -110 686 -87 b 749 -85 729 -82 749 -85 l 750 0 l 757 0 l 757 676 l 661 676 l 661 563 b 406 692 633 607 556 692 b 56 342 211 692 56 536 b 406 -7 56 149 211 -7 b 661 128 507 -7 596 36 l 661 0 l 676 0 l 675 -17 b 583 -124 628 -33 593 -72 b 686 -287 568 -196 614 -269 b 731 -290 693 -289 708 -292 b 833 -240 760 -289 800 -279 z m 406 88 b 150 342 264 88 150 201 b 406 597 150 483 264 597 b 660 342 546 597 660 483 b 406 88 660 201 546 88 z "},"å":{"ha":826,"x_min":0,"x_max":0,"o":"m 414 744 b 483 765 438 744 461 751 b 518 940 540 804 557 882 b 344 975 481 997 401 1014 b 290 896 317 957 297 929 b 308 801 283 863 290 829 b 414 744 333 765 372 744 z m 414 939 b 471 908 436 939 457 928 b 451 814 492 876 483 835 b 356 833 419 793 376 801 b 346 885 346 849 343 867 b 375 928 350 903 360 918 b 414 939 388 936 400 939 z m 661 676 l 661 563 b 406 692 633 607 556 692 b 56 342 211 692 56 536 b 406 -7 56 149 211 -7 b 661 128 507 -7 596 36 l 661 0 l 757 0 l 757 676 z m 406 88 b 150 342 264 88 150 201 b 406 597 150 483 264 597 b 660 342 546 597 660 483 b 406 88 660 201 546 88 z "},"ã":{"ha":826,"x_min":0,"x_max":0,"o":"m 565 883 b 501 819 546 844 528 822 b 433 842 483 817 461 828 b 325 876 403 857 367 875 b 238 839 293 878 263 865 b 200 790 222 825 210 808 l 263 740 b 268 753 264 744 267 749 b 322 799 278 769 299 799 b 397 772 347 797 372 785 b 517 742 432 754 472 733 b 628 835 558 750 593 781 z m 661 676 l 661 563 b 406 692 633 607 556 692 b 56 342 211 692 56 536 b 406 -7 56 149 211 -7 b 661 128 507 -7 596 36 l 661 0 l 757 0 l 757 676 z m 406 88 b 150 342 264 88 150 201 b 406 597 150 483 264 597 b 660 342 546 597 660 483 b 406 88 660 201 546 88 z "},"æ":{"ha":1417,"x_min":0,"x_max":0,"o":"m 1361 343 b 1011 693 1361 538 1204 693 b 757 585 911 693 821 651 l 757 676 l 661 676 l 661 563 b 406 692 633 607 556 692 b 56 342 211 692 56 536 b 406 -7 56 149 211 -7 b 661 128 507 -7 596 36 l 661 0 l 757 0 l 757 103 b 1011 -7 821 35 911 -7 b 1310 161 1138 -7 1249 61 l 1228 208 b 1011 89 1182 136 1103 89 b 761 296 888 89 783 178 l 1358 296 b 1361 343 1360 311 1361 328 z m 761 386 b 1011 599 761 504 888 599 b 1261 386 1136 599 1261 504 z m 406 88 b 150 342 264 88 150 201 b 406 597 150 483 264 597 b 660 342 546 597 660 483 b 406 88 660 201 546 88 z "},"b":{"ha":829,"x_min":0,"x_max":0,"o":"m 69 922 l 69 0 l 163 0 l 163 129 b 422 -7 231 38 319 -7 b 774 344 617 -7 774 151 b 422 696 774 538 617 696 b 163 567 271 696 194 610 l 163 922 z m 165 344 b 422 600 165 485 281 600 b 678 344 563 600 678 485 b 422 88 678 203 563 88 b 165 344 281 88 165 203 z "},"c":{"ha":728,"x_min":0,"x_max":0,"o":"m 588 165 b 406 89 542 118 476 89 b 150 343 265 89 150 203 b 406 597 150 483 265 597 b 588 521 476 597 542 568 l 672 569 b 406 693 607 646 513 693 b 56 343 213 693 56 536 b 406 -7 56 150 213 -7 b 672 117 513 -7 607 40 z "},"ć":{"ha":728,"x_min":0,"x_max":0,"o":"m 401 989 l 338 763 l 424 763 l 499 989 z m 588 165 b 406 89 542 118 476 89 b 150 343 265 89 150 203 b 406 597 150 483 265 597 b 588 521 476 597 542 568 l 672 569 b 406 693 607 646 513 693 b 56 343 213 693 56 536 b 406 -7 56 150 213 -7 b 672 117 513 -7 607 40 z "},"č":{"ha":728,"x_min":0,"x_max":0,"o":"m 436 939 l 364 865 l 289 939 l 181 939 l 365 757 l 542 939 z m 588 165 b 406 89 542 118 476 89 b 150 343 265 89 150 203 b 406 597 150 483 265 597 b 588 521 476 597 542 568 l 672 569 b 406 693 607 646 513 693 b 56 343 213 693 56 536 b 406 -7 56 150 213 -7 b 672 117 513 -7 607 40 z "},"ç":{"ha":728,"x_min":0,"x_max":0,"o":"m 406 89 b 150 343 265 89 150 203 b 406 597 150 483 265 597 b 588 521 476 597 542 568 l 672 569 b 406 693 607 646 513 693 b 56 343 213 693 56 536 b 313 6 56 182 164 47 l 296 -36 l 324 -101 b 349 -96 332 -99 339 -96 b 410 -158 382 -96 410 -125 b 349 -219 410 -192 382 -219 b 307 -204 333 -219 318 -214 l 258 -257 b 349 -292 283 -279 315 -292 b 482 -158 422 -292 482 -232 b 375 -28 482 -94 436 -40 l 383 -7 l 406 -7 b 672 117 513 -7 607 40 l 588 165 b 406 89 542 118 476 89 z "},"d":{"ha":829,"x_min":0,"x_max":0,"o":"m 760 922 l 667 922 l 667 567 b 407 696 635 610 558 696 b 56 344 213 696 56 538 b 407 -7 56 151 213 -7 b 667 129 510 -7 599 38 l 667 0 l 760 0 z m 664 344 b 407 88 664 203 549 88 b 151 344 267 88 151 203 b 407 600 151 485 267 600 b 664 344 549 600 664 485 z "},"ð":{"ha":672,"x_min":0,"x_max":0,"o":"m 593 390 l 438 753 l 542 782 l 524 846 l 411 814 l 364 924 l 261 924 l 319 788 l 211 757 l 229 693 l 346 726 l 424 542 b 336 557 396 551 367 557 b 56 275 181 557 56 431 b 336 -6 56 121 181 -6 b 617 275 492 -6 617 121 b 593 390 617 318 608 356 z m 336 90 b 150 275 233 90 150 172 b 336 461 150 379 233 461 b 522 275 440 461 522 379 b 336 90 522 172 440 90 z "},"ď":{"ha":829,"x_min":0,"x_max":0,"o":"m 488 1168 l 415 1094 l 340 1168 l 232 1168 l 417 986 l 593 1168 z m 760 922 l 667 922 l 667 567 b 407 696 635 610 558 696 b 56 344 213 696 56 538 b 407 -7 56 151 213 -7 b 667 129 510 -7 599 38 l 667 0 l 760 0 z m 664 344 b 407 88 664 203 549 88 b 151 344 267 88 151 203 b 407 600 151 485 267 600 b 664 344 549 600 664 485 z "},"đ":{"ha":886,"x_min":0,"x_max":0,"o":"m 831 857 l 760 857 l 760 922 l 667 922 l 667 857 l 131 857 l 131 774 l 667 774 l 667 567 b 407 696 635 610 558 696 b 56 344 213 696 56 538 b 407 -7 56 151 213 -7 b 667 129 510 -7 599 38 l 667 0 l 760 0 l 760 774 l 831 774 z m 407 88 b 151 344 267 88 151 203 b 407 600 151 485 267 600 b 664 344 549 600 664 485 b 407 88 664 203 549 88 z "},"e":{"ha":811,"x_min":0,"x_max":0,"o":"m 753 296 b 756 343 754 311 756 328 b 406 693 756 538 599 693 b 56 343 213 693 56 538 b 406 -7 56 150 213 -7 b 704 161 532 -7 643 61 l 622 208 b 406 89 576 136 497 89 b 156 296 282 89 178 178 z m 406 599 b 656 386 531 599 656 504 l 156 386 b 406 599 156 504 282 599 z "},"é":{"ha":811,"x_min":0,"x_max":0,"o":"m 443 989 l 379 763 l 465 763 l 540 989 z m 753 296 b 756 343 754 311 756 328 b 406 693 756 538 599 693 b 56 343 213 693 56 538 b 406 -7 56 150 213 -7 b 704 161 532 -7 643 61 l 622 208 b 406 89 576 136 497 89 b 156 296 282 89 178 178 z m 406 599 b 656 386 531 599 656 504 l 156 386 b 406 599 156 504 282 599 z "},"ě":{"ha":811,"x_min":0,"x_max":0,"o":"m 478 939 l 406 865 l 331 939 l 222 939 l 407 757 l 583 939 z m 753 296 b 756 343 754 311 756 328 b 406 693 756 538 599 693 b 56 343 213 693 56 538 b 406 -7 56 150 213 -7 b 704 161 532 -7 643 61 l 622 208 b 406 89 576 136 497 89 b 156 296 282 89 178 178 z m 406 599 b 656 386 531 599 656 504 l 156 386 b 406 599 156 504 282 599 z "},"ê":{"ha":811,"x_min":0,"x_max":0,"o":"m 481 757 l 586 757 l 410 939 l 225 757 l 333 757 l 408 831 z m 753 296 b 756 343 754 311 756 328 b 406 693 756 538 599 693 b 56 343 213 693 56 538 b 406 -7 56 150 213 -7 b 704 161 532 -7 643 61 l 622 208 b 406 89 576 136 497 89 b 156 296 282 89 178 178 z m 406 599 b 656 386 531 599 656 504 l 156 386 b 406 599 156 504 282 599 z "},"ë":{"ha":811,"x_min":0,"x_max":0,"o":"m 239 757 b 178 818 206 757 178 785 b 239 879 178 851 206 879 b 301 818 274 879 301 851 b 239 757 301 785 274 757 z m 486 757 b 425 818 453 757 425 785 b 486 879 425 851 453 879 b 549 818 521 879 549 851 b 486 757 549 785 521 757 z m 753 296 b 756 343 754 311 756 328 b 406 693 756 538 599 693 b 56 343 213 693 56 538 b 406 -7 56 150 213 -7 b 704 161 532 -7 643 61 l 622 208 b 406 89 576 136 497 89 b 156 296 282 89 178 178 z m 406 599 b 656 386 531 599 656 504 l 156 386 b 406 599 156 504 282 599 z "},"ė":{"ha":811,"x_min":0,"x_max":0,"o":"m 363 757 b 301 818 329 757 301 785 b 363 879 301 851 329 879 b 425 818 397 879 425 851 b 363 757 425 785 397 757 z m 753 296 b 756 343 754 311 756 328 b 406 693 756 538 599 693 b 56 343 213 693 56 538 b 406 -7 56 150 213 -7 b 704 161 532 -7 643 61 l 622 208 b 406 89 576 136 497 89 b 156 296 282 89 178 178 z m 406 599 b 656 386 531 599 656 504 l 156 386 b 406 599 156 504 282 599 z "},"è":{"ha":811,"x_min":0,"x_max":0,"o":"m 376 989 l 279 989 l 354 763 l 440 763 z m 753 296 b 756 343 754 311 756 328 b 406 693 756 538 599 693 b 56 343 213 693 56 538 b 406 -7 56 150 213 -7 b 704 161 532 -7 643 61 l 622 208 b 406 89 576 136 497 89 b 156 296 282 89 178 178 z m 406 599 b 656 386 531 599 656 504 l 156 386 b 406 599 156 504 282 599 z "},"ē":{"ha":811,"x_min":0,"x_max":0,"o":"m 628 792 l 628 861 l 182 861 l 182 792 z m 753 296 b 756 343 754 311 756 328 b 406 693 756 538 599 693 b 56 343 213 693 56 538 b 406 -7 56 150 213 -7 b 704 161 532 -7 643 61 l 622 208 b 406 89 576 136 497 89 b 156 296 282 89 178 178 z m 406 599 b 656 386 531 599 656 504 l 156 386 b 406 599 156 504 282 599 z "},"ę":{"ha":811,"x_min":0,"x_max":0,"o":"m 756 343 b 406 693 756 538 599 693 b 56 343 213 693 56 538 b 365 -4 56 164 190 15 l 364 -18 b 272 -125 317 -35 282 -74 b 375 -289 257 -197 303 -271 b 419 -292 382 -290 397 -293 b 522 -242 449 -290 489 -281 l 467 -190 b 393 -214 436 -224 397 -215 b 346 -139 360 -206 339 -172 b 404 -86 351 -111 375 -89 b 438 -86 418 -83 438 -86 l 439 -6 b 704 161 551 6 649 69 l 622 208 b 406 89 576 136 497 89 b 156 296 282 89 178 178 l 753 296 b 756 343 754 311 756 328 z m 156 386 b 406 599 156 504 282 599 b 656 386 531 599 656 504 z "},"f":{"ha":438,"x_min":0,"x_max":0,"o":"m 396 836 l 396 931 b 142 694 261 931 151 826 l 69 694 l 69 600 l 142 600 l 142 0 l 236 0 l 236 600 l 396 600 l 396 694 l 238 694 b 396 836 246 774 314 836 z "},"g":{"ha":825,"x_min":0,"x_max":0,"o":"m 660 676 l 660 565 b 404 694 632 608 553 694 b 56 354 213 694 56 543 b 404 -4 56 167 213 -4 b 660 131 506 -4 594 39 l 660 53 b 406 -201 660 -87 546 -201 b 217 -115 331 -201 263 -169 l 132 -165 b 406 -296 196 -244 294 -296 b 756 53 599 -296 756 -140 l 756 676 z m 404 90 b 149 344 264 90 149 203 b 404 599 149 485 264 599 b 658 344 544 599 658 485 b 404 90 658 203 544 90 z "},"ģ":{"ha":825,"x_min":0,"x_max":0,"o":"m 353 790 l 449 790 l 501 978 l 415 978 z m 660 676 l 660 565 b 404 694 632 608 553 694 b 56 354 213 694 56 543 b 404 -4 56 167 213 -4 b 660 131 506 -4 594 39 l 660 53 b 406 -201 660 -87 546 -201 b 217 -115 331 -201 263 -169 l 132 -165 b 406 -296 196 -244 294 -296 b 756 53 599 -296 756 -140 l 756 676 z m 404 90 b 149 344 264 90 149 203 b 404 599 149 485 264 599 b 658 344 544 599 658 485 b 404 90 658 203 544 90 z "},"h":{"ha":690,"x_min":0,"x_max":0,"o":"m 346 700 b 165 622 276 700 211 676 l 165 926 l 69 926 l 69 0 l 165 0 l 165 425 b 346 606 165 525 246 606 b 525 425 444 606 525 525 l 525 0 l 621 0 l 621 425 b 346 700 621 578 497 700 z "},"i":{"ha":290,"x_min":0,"x_max":0,"o":"m 146 888 b 83 826 111 888 83 860 b 146 764 83 792 111 764 b 207 826 179 764 207 792 b 146 888 207 860 179 888 z m 97 694 l 97 0 l 193 0 l 193 694 z "},"ı":{"ha":263,"x_min":0,"x_max":0,"o":"m 83 694 l 83 0 l 179 0 l 179 694 z "},"í":{"ha":286,"x_min":0,"x_max":0,"o":"m 133 999 l 69 772 l 156 772 l 231 999 z m 83 694 l 83 0 l 179 0 l 179 694 z "},"î":{"ha":472,"x_min":0,"x_max":0,"o":"m 311 767 l 417 767 l 240 949 l 56 767 l 164 767 l 239 840 z m 188 694 l 188 0 l 283 0 l 283 694 z "},"ï":{"ha":482,"x_min":0,"x_max":0,"o":"m 117 767 b 56 828 83 767 56 794 b 117 889 56 861 83 889 b 179 828 151 889 179 861 b 117 767 179 794 151 767 z m 364 767 b 303 828 331 767 303 794 b 364 889 303 861 331 889 b 426 828 399 889 426 861 b 364 767 426 794 399 767 z m 193 694 l 193 0 l 289 0 l 289 694 z "},"ì":{"ha":279,"x_min":0,"x_max":0,"o":"m 153 999 l 56 999 l 131 772 l 217 772 z m 128 694 l 128 0 l 224 0 l 224 694 z "},"ī":{"ha":557,"x_min":0,"x_max":0,"o":"m 501 801 l 501 871 l 56 871 l 56 801 z m 231 694 l 231 0 l 326 0 l 326 694 z "},"į":{"ha":263,"x_min":0,"x_max":0,"o":"m 89 767 b 151 828 124 767 151 794 b 89 889 151 861 124 889 b 28 828 56 889 28 861 b 89 767 28 794 56 767 z m 199 -187 b 125 -211 168 -221 129 -212 b 78 -136 92 -203 71 -169 b 136 -83 83 -108 107 -86 b 169 -83 150 -81 169 -83 l 171 0 l 179 0 l 179 694 l 83 694 l 83 0 l 97 0 l 96 -15 b 4 -122 49 -32 14 -71 b 107 -286 -11 -194 35 -268 b 151 -289 114 -287 129 -290 b 254 -239 181 -287 221 -278 z "},"j":{"ha":339,"x_min":0,"x_max":0,"o":"m 207 888 b 146 826 174 888 146 860 b 207 764 146 792 174 764 b 269 826 242 764 269 792 b 207 888 269 860 242 888 z m 0 -201 b 160 -42 89 -201 160 -129 l 160 694 l 256 694 l 256 -42 b 0 -296 256 -182 142 -296 z "},"k":{"ha":600,"x_min":0,"x_max":0,"o":"m 544 0 l 204 396 l 536 694 l 393 694 l 165 489 l 165 931 l 69 931 l 69 0 l 165 0 l 165 296 l 418 0 z "},"ķ":{"ha":600,"x_min":0,"x_max":0,"o":"m 204 396 l 536 694 l 393 694 l 165 489 l 165 931 l 69 931 l 69 0 l 165 0 l 165 296 l 418 0 l 544 0 z m 208 -211 l 294 -211 l 364 0 l 265 0 z "},"l":{"ha":233,"x_min":0,"x_max":0,"o":"m 69 924 l 69 0 l 164 0 l 164 924 z "},"ĺ":{"ha":299,"x_min":0,"x_max":0,"o":"m 146 1207 l 82 981 l 168 981 l 243 1207 z m 69 924 l 69 0 l 164 0 l 164 924 z "},"ľ":{"ha":472,"x_min":0,"x_max":0,"o":"m 311 1157 l 239 1083 l 164 1157 l 56 1157 l 240 975 l 417 1157 z m 189 924 l 189 0 l 283 0 l 283 924 z "},"ļ":{"ha":233,"x_min":0,"x_max":0,"o":"m 69 924 l 69 0 l 164 0 l 164 924 z m 174 -39 l 75 -39 l 18 -250 l 104 -250 z "},"ł":{"ha":633,"x_min":0,"x_max":0,"o":"m 578 857 l 471 857 l 364 658 l 364 924 l 269 924 l 269 482 l 56 85 l 163 85 l 269 283 l 269 0 l 364 0 l 364 460 z "},"m":{"ha":1063,"x_min":0,"x_max":0,"o":"m 739 694 b 531 588 653 694 578 651 b 324 694 485 651 410 694 b 164 622 264 694 201 667 l 164 676 l 69 676 l 69 0 l 164 0 l 164 436 b 324 599 164 525 236 599 b 483 440 411 599 483 528 l 483 0 l 579 0 l 579 439 l 579 440 b 739 599 579 528 650 599 b 899 439 826 599 899 528 l 899 0 l 993 0 l 993 439 b 739 694 993 581 879 694 z "},"n":{"ha":676,"x_min":0,"x_max":0,"o":"m 344 694 b 164 615 276 694 211 669 l 164 676 l 69 676 l 69 0 l 164 0 l 164 419 b 344 599 164 518 246 599 b 525 419 444 599 525 518 l 525 0 l 621 0 l 621 419 b 344 694 621 571 497 694 z "},"ń":{"ha":676,"x_min":0,"x_max":0,"o":"m 376 989 l 313 763 l 399 763 l 474 989 z m 344 694 b 164 615 276 694 211 669 l 164 676 l 69 676 l 69 0 l 164 0 l 164 419 b 344 599 164 518 246 599 b 525 419 444 599 525 518 l 525 0 l 621 0 l 621 419 b 344 694 621 571 497 694 z "},"ň":{"ha":676,"x_min":0,"x_max":0,"o":"m 411 939 l 339 865 l 264 939 l 156 939 l 340 757 l 517 939 z m 344 694 b 164 615 276 694 211 669 l 164 676 l 69 676 l 69 0 l 164 0 l 164 419 b 344 599 164 518 246 599 b 525 419 444 599 525 518 l 525 0 l 621 0 l 621 419 b 344 694 621 571 497 694 z "},"ņ":{"ha":676,"x_min":0,"x_max":0,"o":"m 344 694 b 164 615 276 694 211 669 l 164 676 l 69 676 l 69 0 l 164 0 l 164 419 b 344 599 164 518 246 599 b 525 419 444 599 525 518 l 525 0 l 621 0 l 621 419 b 344 694 621 571 497 694 z m 403 0 l 304 0 l 247 -211 l 333 -211 z "},"ñ":{"ha":676,"x_min":0,"x_max":0,"o":"m 490 883 b 426 819 471 844 453 822 b 358 842 408 817 386 828 b 250 876 328 857 292 875 b 163 839 218 878 188 865 b 125 790 147 825 135 808 l 188 740 b 193 753 189 744 192 749 b 247 799 203 769 224 799 b 322 772 272 797 297 785 b 442 742 357 754 397 733 b 553 835 483 750 518 781 z m 344 694 b 164 615 276 694 211 669 l 164 676 l 69 676 l 69 0 l 164 0 l 164 419 b 344 599 164 518 246 599 b 525 419 444 599 525 518 l 525 0 l 621 0 l 621 419 b 344 694 621 571 497 694 z "},"o":{"ha":817,"x_min":0,"x_max":0,"o":"m 407 -7 b 761 344 603 -7 761 151 b 407 699 761 540 603 699 b 56 344 214 699 56 540 b 407 -7 56 151 214 -7 z m 407 86 b 150 344 267 86 150 203 b 407 604 150 488 267 604 b 665 344 550 604 665 488 b 407 86 665 203 550 86 z "},"ó":{"ha":817,"x_min":0,"x_max":0,"o":"m 446 989 l 382 763 l 468 763 l 543 989 z m 407 -7 b 761 344 603 -7 761 151 b 407 699 761 540 603 699 b 56 344 214 699 56 540 b 407 -7 56 151 214 -7 z m 407 86 b 150 344 267 86 150 203 b 407 604 150 488 267 604 b 665 344 550 604 665 488 b 407 86 665 203 550 86 z "},"ô":{"ha":817,"x_min":0,"x_max":0,"o":"m 483 757 l 589 757 l 413 939 l 228 757 l 336 757 l 411 831 z m 407 -7 b 761 344 603 -7 761 151 b 407 699 761 540 603 699 b 56 344 214 699 56 540 b 407 -7 56 151 214 -7 z m 407 86 b 150 344 267 86 150 203 b 407 604 150 488 267 604 b 665 344 550 604 665 488 b 407 86 665 203 550 86 z "},"ö":{"ha":817,"x_min":0,"x_max":0,"o":"m 242 757 b 181 818 208 757 181 785 b 242 879 181 851 208 879 b 304 818 276 879 304 851 b 242 757 304 785 276 757 z m 489 757 b 428 818 456 757 428 785 b 489 879 428 851 456 879 b 551 818 524 879 551 851 b 489 757 551 785 524 757 z m 407 -7 b 761 344 603 -7 761 151 b 407 699 761 540 603 699 b 56 344 214 699 56 540 b 407 -7 56 151 214 -7 z m 407 86 b 150 344 267 86 150 203 b 407 604 150 488 267 604 b 665 344 550 604 665 488 b 407 86 665 203 550 86 z "},"ò":{"ha":817,"x_min":0,"x_max":0,"o":"m 379 989 l 282 989 l 357 763 l 443 763 z m 407 -7 b 761 344 603 -7 761 151 b 407 699 761 540 603 699 b 56 344 214 699 56 540 b 407 -7 56 151 214 -7 z m 407 86 b 150 344 267 86 150 203 b 407 604 150 488 267 604 b 665 344 550 604 665 488 b 407 86 665 203 550 86 z "},"ő":{"ha":817,"x_min":0,"x_max":0,"o":"m 367 988 l 303 761 l 389 761 l 464 988 z m 524 988 l 460 761 l 546 761 l 621 988 z m 407 -7 b 761 344 603 -7 761 151 b 407 699 761 540 603 699 b 56 344 214 699 56 540 b 407 -7 56 151 214 -7 z m 407 86 b 150 344 267 86 150 203 b 407 604 150 488 267 604 b 665 344 550 604 665 488 b 407 86 665 203 550 86 z "},"ō":{"ha":817,"x_min":0,"x_max":0,"o":"m 631 792 l 631 861 l 185 861 l 185 792 z m 407 -7 b 761 344 603 -7 761 151 b 407 699 761 540 603 699 b 56 344 214 699 56 540 b 407 -7 56 151 214 -7 z m 407 86 b 150 344 267 86 150 203 b 407 604 150 488 267 604 b 665 344 550 604 665 488 b 407 86 665 203 550 86 z "},"ø":{"ha":817,"x_min":0,"x_max":0,"o":"m 614 632 l 710 810 l 603 810 l 531 676 b 407 699 493 690 450 699 b 56 344 214 699 56 540 b 200 61 56 228 113 125 l 106 -115 l 213 -115 l 283 15 b 407 -7 322 1 364 -7 b 761 344 603 -7 761 151 b 614 632 761 463 703 568 z m 150 344 b 407 604 150 488 267 604 b 486 592 435 604 461 600 l 246 144 b 150 344 188 192 150 264 z m 407 86 b 328 99 379 86 353 90 l 568 547 b 665 344 628 500 665 426 b 407 86 665 203 550 86 z "},"õ":{"ha":817,"x_min":0,"x_max":0,"o":"m 560 883 b 496 819 540 844 522 822 b 428 842 478 817 456 828 b 319 876 397 857 361 875 b 232 839 288 878 257 865 b 194 790 217 825 204 808 l 257 740 b 263 753 258 744 261 749 b 317 799 272 769 293 799 b 392 772 342 797 367 785 b 511 742 426 754 467 733 b 622 835 553 750 588 781 z m 407 -7 b 761 344 603 -7 761 151 b 407 699 761 540 603 699 b 56 344 214 699 56 540 b 407 -7 56 151 214 -7 z m 407 86 b 150 344 267 86 150 203 b 407 604 150 488 267 604 b 665 344 550 604 665 488 b 407 86 665 203 550 86 z "},"œ":{"ha":1422,"x_min":0,"x_max":0,"o":"m 1367 343 b 1017 693 1367 538 1210 693 b 714 521 888 693 775 624 b 407 699 654 626 539 699 b 56 344 214 699 56 540 b 407 -7 56 151 214 -7 b 714 168 538 -7 651 64 b 1017 -7 774 64 888 -7 b 1315 161 1143 -7 1254 61 l 1233 208 b 1017 89 1188 136 1108 89 b 767 296 893 89 789 178 l 1364 296 b 1367 343 1365 311 1367 328 z m 407 86 b 150 344 267 86 150 203 b 407 604 150 488 267 604 b 665 344 550 604 665 488 b 407 86 665 203 550 86 z m 767 386 b 1017 599 767 504 893 599 b 1267 386 1142 599 1267 504 z "},"p":{"ha":826,"x_min":0,"x_max":0,"o":"m 164 -296 l 164 126 b 421 -3 192 83 271 -3 b 771 347 614 -3 771 154 b 421 697 771 540 614 697 b 164 561 319 697 229 653 l 164 676 l 69 676 l 69 -296 z m 421 601 b 675 347 561 601 675 488 b 421 92 675 207 561 92 b 165 347 281 92 165 207 b 421 601 165 488 281 601 z "},"þ":{"ha":826,"x_min":0,"x_max":0,"o":"m 164 -240 l 164 126 b 421 -3 192 83 271 -3 b 771 347 614 -3 771 154 b 421 697 771 540 614 697 b 164 561 319 697 229 653 l 164 924 l 69 924 l 69 -240 z m 421 601 b 675 347 561 601 675 488 b 421 92 675 207 561 92 b 165 347 281 92 165 207 b 421 601 165 488 281 601 z "},"q":{"ha":826,"x_min":0,"x_max":0,"o":"m 663 -296 l 757 -296 l 757 676 l 663 676 l 663 561 b 406 697 597 653 507 697 b 56 347 213 697 56 540 b 406 -3 56 154 213 -3 b 663 126 556 -3 635 83 z m 406 601 b 661 347 546 601 661 488 b 406 92 661 207 546 92 b 151 347 265 92 151 207 b 406 601 151 488 265 601 z "},"r":{"ha":538,"x_min":0,"x_max":0,"o":"m 388 592 l 482 646 b 324 700 438 681 383 700 b 215 676 285 700 249 692 l 213 675 b 69 446 128 635 69 547 l 69 0 l 164 0 l 164 446 b 324 606 164 533 236 606 b 388 592 347 606 368 600 z "},"ŕ":{"ha":538,"x_min":0,"x_max":0,"o":"m 307 989 l 243 763 l 329 763 l 404 989 z m 388 592 l 482 646 b 324 700 438 681 383 700 b 215 676 285 700 249 692 l 213 675 b 69 446 128 635 69 547 l 69 0 l 164 0 l 164 446 b 324 606 164 533 236 606 b 388 592 347 606 368 600 z "},"ř":{"ha":538,"x_min":0,"x_max":0,"o":"m 342 939 l 269 865 l 194 939 l 86 939 l 271 757 l 447 939 z m 388 592 l 482 646 b 324 700 438 681 383 700 b 215 676 285 700 249 692 l 213 675 b 69 446 128 635 69 547 l 69 0 l 164 0 l 164 446 b 324 606 164 533 236 606 b 388 592 347 606 368 600 z "},"ŗ":{"ha":538,"x_min":0,"x_max":0,"o":"m 388 592 l 482 646 b 324 700 438 681 383 700 b 215 676 285 700 249 692 l 213 675 b 69 446 128 635 69 547 l 69 0 l 164 0 l 164 446 b 324 606 164 533 236 606 b 388 592 347 606 368 600 z m 169 -40 l 71 -40 l 14 -251 l 100 -251 z "},"s":{"ha":599,"x_min":0,"x_max":0,"o":"m 153 186 l 56 186 b 122 56 64 133 88 89 b 303 -7 167 15 229 -7 b 482 57 372 -7 436 13 b 543 199 521 94 543 144 b 453 364 543 276 513 332 b 175 436 358 414 229 371 b 153 511 157 456 149 479 b 301 608 157 540 165 608 b 422 553 358 607 399 589 b 440 507 431 538 438 522 l 538 507 b 503 603 533 536 522 571 b 301 703 474 649 415 703 l 300 703 b 58 522 160 703 74 639 b 103 372 51 464 68 414 b 447 199 226 236 447 381 b 319 89 447 138 396 93 b 188 125 279 86 225 92 b 153 186 171 140 160 161 z "},"ś":{"ha":599,"x_min":0,"x_max":0,"o":"m 338 989 l 274 763 l 360 763 l 435 989 z m 153 186 l 56 186 b 122 56 64 133 88 89 b 303 -7 167 15 229 -7 b 482 57 372 -7 436 13 b 543 199 521 94 543 144 b 453 364 543 276 513 332 b 175 436 358 414 229 371 b 153 511 157 456 149 479 b 301 608 157 540 165 608 b 422 553 358 607 399 589 b 440 507 431 538 438 522 l 538 507 b 503 603 533 536 522 571 b 301 703 474 649 415 703 l 300 703 b 58 522 160 703 74 639 b 103 372 51 464 68 414 b 447 199 226 236 447 381 b 319 89 447 138 396 93 b 188 125 279 86 225 92 b 153 186 171 140 160 161 z "},"š":{"ha":599,"x_min":0,"x_max":0,"o":"m 372 939 l 300 865 l 225 939 l 117 939 l 301 757 l 478 939 z m 153 186 l 56 186 b 122 56 64 133 88 89 b 303 -7 167 15 229 -7 b 482 57 372 -7 436 13 b 543 199 521 94 543 144 b 453 364 543 276 513 332 b 175 436 358 414 229 371 b 153 511 157 456 149 479 b 301 608 157 540 165 608 b 422 553 358 607 399 589 b 440 507 431 538 438 522 l 538 507 b 503 603 533 536 522 571 b 301 703 474 649 415 703 l 300 703 b 58 522 160 703 74 639 b 103 372 51 464 68 414 b 447 199 226 236 447 381 b 319 89 447 138 396 93 b 188 125 279 86 225 92 b 153 186 171 140 160 161 z "},"ş":{"ha":599,"x_min":0,"x_max":0,"o":"m 453 364 b 175 436 358 414 229 371 b 153 511 157 456 149 479 b 301 608 157 540 165 608 b 422 553 358 607 399 589 b 440 507 431 538 438 522 l 538 507 b 503 603 533 536 522 571 b 301 703 474 649 415 703 l 300 703 b 58 522 160 703 74 639 b 103 372 51 464 68 414 b 447 199 226 236 447 381 b 319 89 447 138 396 93 b 188 125 279 86 225 92 b 153 186 171 140 160 161 l 56 186 b 122 56 64 133 88 89 b 246 -1 154 26 196 7 l 232 -36 l 260 -101 b 285 -96 268 -99 275 -96 b 346 -158 318 -96 346 -125 b 285 -219 346 -192 318 -219 b 243 -204 269 -219 254 -214 l 194 -257 b 285 -292 219 -279 251 -292 b 418 -158 358 -292 418 -232 b 311 -28 418 -94 372 -40 l 319 -7 b 482 57 382 -4 440 17 b 543 199 521 94 543 144 b 453 364 543 276 513 332 z "},"ß":{"ha":685,"x_min":0,"x_max":0,"o":"m 274 94 l 374 94 b 535 254 463 94 535 167 b 374 415 535 343 463 415 l 164 415 l 164 0 l 69 0 l 69 925 l 142 925 l 142 926 l 340 926 b 596 671 481 926 596 811 b 504 475 596 592 560 522 b 629 254 579 431 629 349 b 374 0 629 114 515 0 l 274 0 z m 500 671 b 340 831 500 758 428 831 l 164 831 l 164 510 l 340 510 b 500 671 428 510 500 582 z "},"t":{"ha":438,"x_min":0,"x_max":0,"o":"m 382 694 l 267 694 l 267 924 l 171 924 l 171 694 l 56 694 l 56 600 l 171 600 l 171 0 l 267 0 l 267 600 l 382 600 z "},"ŧ":{"ha":811,"x_min":0,"x_max":0,"o":"m 756 774 l 756 857 l 453 857 l 453 924 l 357 924 l 357 857 l 56 857 l 56 774 l 357 774 l 357 694 l 242 694 l 242 600 l 357 600 l 357 0 l 453 0 l 453 600 l 568 600 l 568 694 l 453 694 l 453 774 z "},"ť":{"ha":472,"x_min":0,"x_max":0,"o":"m 417 1157 l 311 1157 l 239 1083 l 164 1157 l 56 1157 l 240 975 z m 286 924 l 190 924 l 190 694 l 75 694 l 75 600 l 190 600 l 190 0 l 286 0 l 286 600 l 401 600 l 401 694 l 286 694 z "},"ţ":{"ha":438,"x_min":0,"x_max":0,"o":"m 267 0 l 267 600 l 382 600 l 382 694 l 267 694 l 267 924 l 171 924 l 171 694 l 56 694 l 56 600 l 171 600 l 171 0 l 174 0 l 151 -56 l 179 -121 b 204 -115 188 -118 194 -115 b 265 -178 238 -115 265 -144 b 204 -239 265 -211 238 -239 b 163 -224 189 -239 174 -233 l 114 -276 b 204 -311 139 -299 171 -311 b 338 -178 278 -311 338 -251 b 231 -47 338 -114 292 -60 l 250 0 z "},"u":{"ha":690,"x_min":0,"x_max":0,"o":"m 346 -6 b 526 74 414 -6 479 19 l 526 7 l 621 7 l 621 694 l 526 694 l 526 269 b 346 89 526 171 444 89 b 165 269 246 89 165 171 l 165 694 l 69 694 l 69 269 b 346 -6 69 118 193 -6 z "},"ú":{"ha":690,"x_min":0,"x_max":0,"o":"m 390 989 l 326 763 l 413 763 l 488 989 z m 346 -6 b 526 74 414 -6 479 19 l 526 7 l 621 7 l 621 694 l 526 694 l 526 269 b 346 89 526 171 444 89 b 165 269 246 89 165 171 l 165 694 l 69 694 l 69 269 b 346 -6 69 118 193 -6 z "},"û":{"ha":690,"x_min":0,"x_max":0,"o":"m 428 757 l 533 757 l 357 939 l 172 757 l 281 757 l 356 831 z m 346 -6 b 526 74 414 -6 479 19 l 526 7 l 621 7 l 621 694 l 526 694 l 526 269 b 346 89 526 171 444 89 b 165 269 246 89 165 171 l 165 694 l 69 694 l 69 269 b 346 -6 69 118 193 -6 z "},"ü":{"ha":690,"x_min":0,"x_max":0,"o":"m 186 757 b 125 818 153 757 125 785 b 186 879 125 851 153 879 b 249 818 221 879 249 851 b 186 757 249 785 221 757 z m 433 757 b 372 818 400 757 372 785 b 433 879 372 851 400 879 b 496 818 468 879 496 851 b 433 757 496 785 468 757 z m 346 -6 b 526 74 414 -6 479 19 l 526 7 l 621 7 l 621 694 l 526 694 l 526 269 b 346 89 526 171 444 89 b 165 269 246 89 165 171 l 165 694 l 69 694 l 69 269 b 346 -6 69 118 193 -6 z "},"ù":{"ha":690,"x_min":0,"x_max":0,"o":"m 324 989 l 226 989 l 301 763 l 388 763 z m 346 -6 b 526 74 414 -6 479 19 l 526 7 l 621 7 l 621 694 l 526 694 l 526 269 b 346 89 526 171 444 89 b 165 269 246 89 165 171 l 165 694 l 69 694 l 69 269 b 346 -6 69 118 193 -6 z "},"ű":{"ha":690,"x_min":0,"x_max":0,"o":"m 311 988 l 247 761 l 333 761 l 408 988 z m 468 988 l 404 761 l 490 761 l 565 988 z m 346 -6 b 526 74 414 -6 479 19 l 526 7 l 621 7 l 621 694 l 526 694 l 526 269 b 346 89 526 171 444 89 b 165 269 246 89 165 171 l 165 694 l 69 694 l 69 269 b 346 -6 69 118 193 -6 z "},"ū":{"ha":690,"x_min":0,"x_max":0,"o":"m 575 792 l 575 861 l 129 861 l 129 792 z m 346 -6 b 526 74 414 -6 479 19 l 526 7 l 621 7 l 621 694 l 526 694 l 526 269 b 346 89 526 171 444 89 b 165 269 246 89 165 171 l 165 694 l 69 694 l 69 269 b 346 -6 69 118 193 -6 z "},"ų":{"ha":690,"x_min":0,"x_max":0,"o":"m 642 -181 b 568 -204 611 -214 572 -206 b 521 -129 535 -196 514 -162 b 579 -76 526 -101 550 -79 b 613 -76 593 -74 613 -76 l 614 7 l 621 7 l 621 694 l 526 694 l 526 269 b 346 89 526 171 444 89 b 165 269 246 89 165 171 l 165 694 l 69 694 l 69 269 b 346 -6 69 118 193 -6 b 526 74 414 -6 479 19 l 526 7 l 540 7 l 539 -8 b 447 -115 492 -25 457 -64 b 550 -279 432 -187 478 -261 b 594 -282 557 -281 572 -283 b 697 -232 624 -281 664 -271 z "},"ů":{"ha":690,"x_min":0,"x_max":0,"o":"m 353 744 b 422 765 376 744 400 751 b 457 940 479 804 496 882 b 283 975 419 997 340 1014 b 229 896 256 957 236 929 b 247 801 222 863 229 829 b 353 744 272 765 311 744 z m 353 939 b 410 908 375 939 396 928 b 390 814 431 876 422 835 b 294 833 358 793 315 801 b 285 885 285 849 282 867 b 314 928 289 903 299 918 b 353 939 326 936 339 939 z m 346 -6 b 526 74 414 -6 479 19 l 526 7 l 621 7 l 621 694 l 526 694 l 526 269 b 346 89 526 171 444 89 b 165 269 246 89 165 171 l 165 694 l 69 694 l 69 269 b 346 -6 69 118 193 -6 z "},"v":{"ha":760,"x_min":0,"x_max":0,"o":"m 603 692 l 381 132 l 157 692 l 56 692 l 329 0 l 431 0 l 704 692 z "},"w":{"ha":1147,"x_min":0,"x_max":0,"o":"m 990 694 l 768 132 l 544 694 l 442 694 l 524 488 l 382 132 l 158 694 l 56 694 l 332 0 l 432 0 l 575 360 l 718 0 l 818 0 l 1092 694 z "},"ẃ":{"ha":1147,"x_min":0,"x_max":0,"o":"m 611 989 l 547 763 l 633 763 l 708 989 z m 990 694 l 768 132 l 544 694 l 442 694 l 524 488 l 382 132 l 158 694 l 56 694 l 332 0 l 432 0 l 575 360 l 718 0 l 818 0 l 1092 694 z "},"ŵ":{"ha":1147,"x_min":0,"x_max":0,"o":"m 649 757 l 754 757 l 578 939 l 393 757 l 501 757 l 576 831 z m 990 694 l 768 132 l 544 694 l 442 694 l 524 488 l 382 132 l 158 694 l 56 694 l 332 0 l 432 0 l 575 360 l 718 0 l 818 0 l 1092 694 z "},"ẅ":{"ha":1147,"x_min":0,"x_max":0,"o":"m 407 757 b 346 818 374 757 346 785 b 407 879 346 851 374 879 b 469 818 442 879 469 851 b 407 757 469 785 442 757 z m 654 757 b 593 818 621 757 593 785 b 654 879 593 851 621 879 b 717 818 689 879 717 851 b 654 757 717 785 689 757 z m 990 694 l 768 132 l 544 694 l 442 694 l 524 488 l 382 132 l 158 694 l 56 694 l 332 0 l 432 0 l 575 360 l 718 0 l 818 0 l 1092 694 z "},"ẁ":{"ha":1147,"x_min":0,"x_max":0,"o":"m 544 989 l 447 989 l 522 763 l 608 763 z m 990 694 l 768 132 l 544 694 l 442 694 l 524 488 l 382 132 l 158 694 l 56 694 l 332 0 l 432 0 l 575 360 l 718 0 l 818 0 l 1092 694 z "},"x":{"ha":653,"x_min":0,"x_max":0,"o":"m 597 689 l 485 689 l 326 429 l 167 689 l 56 689 l 269 339 l 63 0 l 174 0 l 326 247 l 478 0 l 590 0 l 382 339 z "},"y":{"ha":728,"x_min":0,"x_max":0,"o":"m 564 694 l 564 299 b 357 92 564 185 471 92 b 150 299 243 92 150 185 l 150 694 l 56 694 l 56 290 b 357 -3 60 128 193 -3 b 564 79 438 -3 510 28 l 564 6 b 357 -201 564 -108 471 -201 b 186 -110 286 -201 222 -165 l 103 -157 b 357 -296 157 -240 250 -296 b 658 6 524 -296 658 -161 l 658 694 z "},"ý":{"ha":728,"x_min":0,"x_max":0,"o":"m 401 989 l 338 763 l 424 763 l 499 989 z m 564 694 l 564 299 b 357 92 564 185 471 92 b 150 299 243 92 150 185 l 150 694 l 56 694 l 56 290 b 357 -3 60 128 193 -3 b 564 79 438 -3 510 28 l 564 6 b 357 -201 564 -108 471 -201 b 186 -110 286 -201 222 -165 l 103 -157 b 357 -296 157 -240 250 -296 b 658 6 524 -296 658 -161 l 658 694 z "},"ŷ":{"ha":728,"x_min":0,"x_max":0,"o":"m 439 757 l 544 757 l 368 939 l 183 757 l 292 757 l 367 831 z m 564 694 l 564 299 b 357 92 564 185 471 92 b 150 299 243 92 150 185 l 150 694 l 56 694 l 56 290 b 357 -3 60 128 193 -3 b 564 79 438 -3 510 28 l 564 6 b 357 -201 564 -108 471 -201 b 186 -110 286 -201 222 -165 l 103 -157 b 357 -296 157 -240 250 -296 b 658 6 524 -296 658 -161 l 658 694 z "},"ÿ":{"ha":728,"x_min":0,"x_max":0,"o":"m 197 757 b 136 818 164 757 136 785 b 197 879 136 851 164 879 b 260 818 232 879 260 851 b 197 757 260 785 232 757 z m 444 757 b 383 818 411 757 383 785 b 444 879 383 851 411 879 b 507 818 479 879 507 851 b 444 757 507 785 479 757 z m 564 694 l 564 299 b 357 92 564 185 471 92 b 150 299 243 92 150 185 l 150 694 l 56 694 l 56 290 b 357 -3 60 128 193 -3 b 564 79 438 -3 510 28 l 564 6 b 357 -201 564 -108 471 -201 b 186 -110 286 -201 222 -165 l 103 -157 b 357 -296 157 -240 250 -296 b 658 6 524 -296 658 -161 l 658 694 z "},"ỳ":{"ha":728,"x_min":0,"x_max":0,"o":"m 335 989 l 238 989 l 313 763 l 399 763 z m 564 694 l 564 299 b 357 92 564 185 471 92 b 150 299 243 92 150 185 l 150 694 l 56 694 l 56 290 b 357 -3 60 128 193 -3 b 564 79 438 -3 510 28 l 564 6 b 357 -201 564 -108 471 -201 b 186 -110 286 -201 222 -165 l 103 -157 b 357 -296 157 -240 250 -296 b 658 6 524 -296 658 -161 l 658 694 z "},"z":{"ha":674,"x_min":0,"x_max":0,"o":"m 185 94 l 618 593 l 618 689 l 56 689 l 56 593 l 490 593 l 56 94 l 56 0 l 618 0 l 618 94 z "},"ź":{"ha":674,"x_min":0,"x_max":0,"o":"m 375 989 l 311 763 l 397 763 l 472 989 z m 185 94 l 618 593 l 618 689 l 56 689 l 56 593 l 490 593 l 56 94 l 56 0 l 618 0 l 618 94 z "},"ž":{"ha":674,"x_min":0,"x_max":0,"o":"m 410 939 l 338 865 l 263 939 l 154 939 l 339 757 l 515 939 z m 185 94 l 618 593 l 618 689 l 56 689 l 56 593 l 490 593 l 56 94 l 56 0 l 618 0 l 618 94 z "},"ż":{"ha":674,"x_min":0,"x_max":0,"o":"m 294 757 b 233 818 261 757 233 785 b 294 879 233 851 261 879 b 357 818 329 879 357 851 b 294 757 357 785 329 757 z m 185 94 l 618 593 l 618 689 l 56 689 l 56 593 l 490 593 l 56 94 l 56 0 l 618 0 l 618 94 z "},"⁄":{"ha":689,"x_min":0,"x_max":0,"o":"m 553 925 l 56 0 l 136 0 l 633 925 z "},"*":{"ha":614,"x_min":0,"x_max":0,"o":"m 558 785 l 506 863 l 354 757 l 354 924 l 260 924 l 260 757 l 108 863 l 56 785 l 225 668 l 56 551 l 108 474 l 260 579 l 260 438 l 354 438 l 354 579 l 506 474 l 558 551 l 389 668 z "},"\\":{"ha":715,"x_min":0,"x_max":0,"o":"m 163 925 l 56 925 l 553 0 l 660 0 z "},"·":{"ha":263,"x_min":0,"x_max":0,"o":"m 89 367 b 28 428 56 367 28 394 b 89 489 28 461 56 489 b 151 428 124 489 151 461 b 89 367 151 394 124 367 z "},"•":{"ha":493,"x_min":0,"x_max":0,"o":"m 246 607 b 56 417 140 607 56 522 b 246 226 56 311 140 226 b 438 417 351 226 438 311 b 246 607 438 522 351 607 z "},":":{"ha":263,"x_min":0,"x_max":0,"o":"m 89 474 b 28 535 56 474 28 501 b 89 596 28 568 56 596 b 151 535 124 596 151 568 b 89 474 151 501 124 474 z m 89 -1 b 28 60 56 -1 28 26 b 89 121 28 93 56 121 b 151 60 124 121 151 93 b 89 -1 151 26 124 -1 z "},",":{"ha":307,"x_min":0,"x_max":0,"o":"m 138 149 l 56 -142 l 142 -142 l 238 149 z "},"…":{"ha":742,"x_min":0,"x_max":0,"o":"m 89 -3 b 28 58 56 -3 28 25 b 89 119 28 92 56 119 b 151 58 124 119 151 92 b 89 -3 151 25 124 -3 z m 329 -3 b 268 58 296 -3 268 25 b 329 119 268 92 296 119 b 392 58 364 119 392 92 b 329 -3 392 25 364 -3 z m 568 -3 b 507 58 535 -3 507 25 b 568 119 507 92 535 119 b 631 58 603 119 631 92 b 568 -3 631 25 603 -3 z "},"!":{"ha":263,"x_min":0,"x_max":0,"o":"m 178 203 l 178 924 l 83 924 l 83 203 z m 131 -3 b 69 58 97 -3 69 25 b 131 119 69 92 97 119 b 193 58 165 119 193 92 b 131 -3 193 25 165 -3 z "},"¡":{"ha":263,"x_min":0,"x_max":0,"o":"m 131 926 b 193 865 165 926 193 899 b 131 804 193 832 165 804 b 69 865 97 804 69 832 b 131 926 69 899 97 926 z m 178 721 l 83 721 l 83 0 l 178 0 z "},"#":{"ha":1063,"x_min":0,"x_max":0,"o":"m 993 569 l 993 664 l 733 664 l 733 924 l 639 924 l 639 664 l 422 664 l 422 924 l 328 924 l 328 664 l 69 664 l 69 569 l 328 569 l 328 353 l 69 353 l 69 258 l 328 258 l 328 0 l 422 0 l 422 258 l 639 258 l 639 0 l 733 0 l 733 258 l 993 258 l 993 353 l 733 353 l 733 569 z m 639 353 l 422 353 l 422 569 l 639 569 z "},".":{"ha":221,"x_min":0,"x_max":0,"o":"m 89 -3 b 28 58 56 -3 28 25 b 89 119 28 92 56 119 b 151 58 124 119 151 92 b 89 -3 151 25 124 -3 z "},"?":{"ha":707,"x_min":0,"x_max":0,"o":"m 425 218 l 425 357 l 529 443 b 651 685 611 513 651 592 b 354 983 651 850 518 983 b 56 685 189 983 56 850 l 150 685 b 354 888 150 797 242 888 b 557 685 465 888 557 797 b 468 517 557 619 529 568 l 331 401 l 331 218 z m 378 0 b 440 61 413 0 440 28 b 378 124 440 96 413 124 b 317 61 344 124 317 96 b 378 0 317 28 344 0 z "},"¿":{"ha":707,"x_min":0,"x_max":0,"o":"m 329 744 b 267 683 294 744 267 717 b 329 621 267 649 294 621 b 390 683 363 621 390 649 b 329 744 390 717 363 744 z m 282 526 l 282 388 l 178 301 b 56 60 96 232 56 153 b 353 -239 56 -106 189 -239 b 651 60 518 -239 651 -106 l 557 60 b 353 -143 557 -53 465 -143 b 150 60 242 -143 150 -53 b 239 228 150 125 178 176 l 376 343 l 376 526 z "},"\"":{"ha":369,"x_min":0,"x_max":0,"o":"m 143 631 l 151 922 l 56 922 l 64 631 z m 306 631 l 314 922 l 218 922 l 226 631 z "},"'":{"ha":207,"x_min":0,"x_max":0,"o":"m 143 631 l 151 922 l 56 922 l 64 631 z "},";":{"ha":307,"x_min":0,"x_max":0,"o":"m 175 474 b 114 535 142 474 114 501 b 175 596 114 568 142 596 b 238 535 210 596 238 568 b 175 474 238 501 210 474 z m 124 149 l 42 -142 l 128 -142 l 224 149 z "},"/":{"ha":715,"x_min":0,"x_max":0,"o":"m 553 925 l 56 0 l 163 0 l 660 925 z "},"_":{"ha":717,"x_min":0,"x_max":0,"o":"m 56 -136 l 661 -136 l 661 -67 l 56 -67 z "},"{":{"ha":454,"x_min":0,"x_max":0,"o":"m 286 829 l 413 829 l 413 924 l 286 924 b 147 785 210 924 147 861 l 147 583 b 131 476 150 539 142 488 b 69 438 119 464 93 450 l 69 314 b 131 275 93 301 119 288 b 147 168 142 264 150 213 l 147 -33 b 286 -172 147 -110 210 -172 l 413 -172 l 413 -78 l 286 -78 b 242 -33 261 -78 242 -58 l 242 164 b 197 340 243 196 243 296 b 147 375 185 353 165 365 b 197 410 165 386 185 399 b 242 586 243 456 243 556 l 242 785 b 286 829 242 810 261 829 z "},"}":{"ha":454,"x_min":0,"x_max":0,"o":"m 196 829 b 240 785 221 829 240 810 l 240 586 b 285 410 239 556 239 456 b 335 375 297 399 317 386 b 285 340 317 365 297 353 b 240 164 239 296 239 196 l 240 -33 b 196 -78 240 -58 221 -78 l 69 -78 l 69 -172 l 196 -172 b 335 -33 272 -172 335 -110 l 335 168 b 351 275 332 213 340 264 b 413 314 363 288 389 301 l 413 438 b 351 476 389 450 363 464 b 335 583 340 488 332 539 l 335 785 b 196 924 335 861 272 924 l 69 924 l 69 829 z "},"[":{"ha":401,"x_min":0,"x_max":0,"o":"m 360 -178 l 360 -83 l 163 -83 l 163 828 l 360 828 l 360 922 l 69 922 l 69 -178 z "},"]":{"ha":401,"x_min":0,"x_max":0,"o":"m 69 -178 l 360 -178 l 360 922 l 69 922 l 69 828 l 267 828 l 267 -83 l 69 -83 z "},"(":{"ha":263,"x_min":0,"x_max":0,"o":"m 221 924 l 125 924 b 69 351 89 736 69 543 b 115 -168 69 176 85 3 l 211 -168 b 164 351 179 3 164 176 b 221 924 164 543 183 736 z "},")":{"ha":263,"x_min":0,"x_max":0,"o":"m 69 924 b 126 351 107 736 126 543 b 79 -168 126 176 111 3 l 175 -168 b 221 351 206 3 221 176 b 165 924 221 543 201 736 z "},"—":{"ha":979,"x_min":0,"x_max":0,"o":"m 924 342 l 924 436 l 56 436 l 56 342 z "},"–":{"ha":764,"x_min":0,"x_max":0,"o":"m 708 342 l 708 436 l 56 436 l 56 342 z "},"-":{"ha":600,"x_min":0,"x_max":0,"o":"m 544 342 l 544 436 l 56 436 l 56 342 z "},"«":{"ha":783,"x_min":0,"x_max":0,"o":"m 450 121 l 188 389 l 433 654 l 304 654 l 56 386 l 317 121 z m 728 121 l 464 389 l 711 654 l 581 654 l 332 386 l 594 121 z "},"»":{"ha":783,"x_min":0,"x_max":0,"o":"m 56 121 l 189 121 l 451 386 l 203 654 l 72 654 l 319 389 z m 333 121 l 467 121 l 728 386 l 479 654 l 350 654 l 596 389 z "},"‹":{"ha":507,"x_min":0,"x_max":0,"o":"m 451 121 l 188 389 l 435 654 l 304 654 l 56 386 l 318 121 z "},"›":{"ha":507,"x_min":0,"x_max":0,"o":"m 56 121 l 189 121 l 451 386 l 203 654 l 72 654 l 319 389 z "},"„":{"ha":493,"x_min":0,"x_max":0,"o":"m 138 149 l 56 -142 l 142 -142 l 238 149 z m 338 149 l 256 -142 l 342 -142 l 438 149 z "},"“":{"ha":425,"x_min":0,"x_max":0,"o":"m 156 956 l 56 956 l 151 665 l 238 665 z m 343 956 l 243 956 l 339 665 l 425 665 z "},"”":{"ha":425,"x_min":0,"x_max":0,"o":"m 82 956 l 0 665 l 86 665 l 182 956 z m 269 956 l 188 665 l 274 665 l 369 956 z "},"‘":{"ha":238,"x_min":0,"x_max":0,"o":"m 156 956 l 56 956 l 151 665 l 238 665 z "},"’":{"ha":238,"x_min":0,"x_max":0,"o":"m 138 956 l 56 665 l 142 665 l 238 956 z "},"‚":{"ha":293,"x_min":0,"x_max":0,"o":"m 138 149 l 56 -142 l 142 -142 l 238 149 z "}," ":{"ha":694,"x_min":0,"x_max":0,"o":""},"¢":{"ha":729,"x_min":0,"x_max":0,"o":"m 406 192 b 150 447 265 192 150 307 b 406 703 150 589 265 703 b 589 626 478 703 542 674 l 674 675 b 443 797 617 743 536 788 l 443 867 l 347 867 l 347 794 b 56 447 182 765 56 622 b 347 101 56 274 182 129 l 347 31 l 443 31 l 443 97 b 674 219 536 107 617 153 l 589 268 b 406 192 542 221 478 192 z "},"¤":{"ha":814,"x_min":0,"x_max":0,"o":"m 758 347 b 688 560 758 428 732 501 l 750 622 l 682 690 l 619 628 b 407 699 561 672 488 699 b 194 628 328 699 254 672 l 132 690 l 65 622 l 128 560 b 56 347 83 501 56 428 b 128 136 56 268 83 194 l 65 74 l 132 6 l 194 68 b 407 -3 254 24 328 -3 b 619 68 488 -3 561 24 l 682 6 l 750 74 l 688 136 b 758 347 732 194 758 268 z m 407 92 b 264 136 354 92 304 108 b 196 204 238 154 214 178 b 151 347 168 244 151 294 b 196 492 151 401 168 451 b 264 560 214 518 238 542 b 407 604 304 588 354 604 b 551 560 461 604 510 588 b 618 492 578 542 600 518 b 663 347 647 451 663 401 b 618 204 663 294 647 244 b 551 136 600 178 578 154 b 407 92 510 108 461 92 z "},"$":{"ha":764,"x_min":0,"x_max":0,"o":"m 597 449 b 429 503 557 476 504 493 l 429 828 b 564 746 492 819 535 793 b 596 656 582 717 592 685 l 692 656 b 429 921 678 783 600 904 l 429 1001 l 335 1001 l 335 921 b 171 850 267 914 211 889 b 100 664 125 804 100 736 b 335 417 100 521 179 439 l 335 99 b 222 149 289 106 250 124 b 165 263 192 178 174 215 l 69 263 b 157 81 79 188 108 125 b 335 3 203 38 264 13 l 335 -78 l 429 -78 l 429 1 b 618 82 501 8 568 32 b 694 260 668 128 694 193 b 597 449 694 344 664 410 z m 193 664 b 238 783 193 692 200 744 b 335 826 261 807 293 821 l 335 514 b 193 664 258 525 193 557 z m 429 96 l 429 407 b 600 260 571 386 600 336 b 429 96 600 172 532 108 z "},"€":{"ha":825,"x_min":0,"x_max":0,"o":"m 638 835 b 769 811 683 835 728 826 l 769 911 b 638 931 726 924 682 931 b 189 603 428 931 250 793 l 56 603 l 56 507 l 169 507 b 167 460 168 492 167 475 b 169 414 167 444 168 429 l 56 414 l 56 318 l 189 318 b 638 -10 249 128 428 -10 b 769 10 682 -10 726 -3 l 769 110 b 638 86 728 94 683 86 b 290 318 481 86 347 182 l 579 318 l 579 414 l 265 414 b 263 460 264 429 263 444 b 265 507 263 476 264 492 l 579 507 l 579 603 l 290 603 b 638 835 347 739 481 835 z "},"£":{"ha":553,"x_min":0,"x_max":0,"o":"m 404 863 l 497 863 l 497 958 l 403 958 b 149 703 263 957 149 843 l 149 607 l 75 607 l 75 511 l 149 511 l 149 96 l 56 96 l 56 0 l 497 0 l 497 96 l 243 96 l 243 511 l 404 511 l 404 607 l 243 607 l 243 703 b 404 863 243 790 315 863 z "},"¥":{"ha":782,"x_min":0,"x_max":0,"o":"m 726 928 l 619 928 l 390 461 l 163 928 l 56 928 l 294 439 l 129 439 l 129 343 l 342 343 l 343 340 l 343 250 l 129 250 l 129 154 l 343 154 l 343 0 l 439 0 l 439 154 l 653 154 l 653 250 l 439 250 l 439 343 l 653 343 l 653 439 l 486 439 z "},"+":{"ha":764,"x_min":0,"x_max":0,"o":"m 708 436 l 429 436 l 429 715 l 335 715 l 335 436 l 56 436 l 56 342 l 335 342 l 335 63 l 429 63 l 429 342 l 708 342 z "},"−":{"ha":764,"x_min":0,"x_max":0,"o":"m 708 342 l 708 436 l 56 436 l 56 342 z "},"×":{"ha":640,"x_min":0,"x_max":0,"o":"m 585 586 l 518 653 l 321 456 l 124 653 l 56 586 l 253 389 l 56 192 l 124 125 l 321 322 l 518 125 l 585 192 l 388 389 z "},"÷":{"ha":763,"x_min":0,"x_max":0,"o":"m 381 519 b 443 581 415 519 443 547 b 381 643 443 615 415 643 b 319 581 347 643 319 615 b 381 519 319 547 347 519 z m 707 343 l 56 343 l 56 438 l 707 438 z m 381 138 b 319 200 347 138 319 165 b 381 261 319 233 347 261 b 443 200 415 261 443 233 b 381 138 443 165 415 138 z "},"=":{"ha":764,"x_min":0,"x_max":0,"o":"m 708 461 l 56 461 l 56 557 l 708 557 z m 708 226 l 708 321 l 56 321 l 56 226 z "},"≠":{"ha":764,"x_min":0,"x_max":0,"o":"m 708 457 l 708 553 l 585 553 l 664 651 l 590 711 l 461 553 l 56 553 l 56 457 l 383 457 l 271 318 l 56 318 l 56 222 l 193 222 l 100 108 l 175 47 l 317 222 l 708 222 l 708 318 l 394 318 l 507 457 z "},">":{"ha":928,"x_min":0,"x_max":0,"o":"m 56 103 l 56 0 l 872 332 l 872 419 l 56 765 l 56 663 l 729 376 z "},"<":{"ha":928,"x_min":0,"x_max":0,"o":"m 872 103 l 199 376 l 872 663 l 872 765 l 56 419 l 56 332 l 872 0 z "},"≥":{"ha":851,"x_min":0,"x_max":0,"o":"m 56 607 l 617 433 l 56 271 l 56 171 l 794 386 l 796 478 l 56 707 z m 56 0 l 782 0 l 782 96 l 56 96 z "},"≤":{"ha":851,"x_min":0,"x_max":0,"o":"m 796 607 l 796 707 l 56 478 l 57 386 l 796 171 l 796 271 l 235 433 z m 796 0 l 796 96 l 69 96 l 69 0 z "},"±":{"ha":764,"x_min":0,"x_max":0,"o":"m 429 529 l 429 703 l 335 703 l 335 529 l 56 529 l 56 433 l 335 433 l 335 260 l 429 260 l 429 433 l 708 433 l 708 529 z m 56 104 l 708 104 l 708 200 l 56 200 z "},"≈":{"ha":826,"x_min":0,"x_max":0,"o":"m 579 399 b 763 536 649 399 711 444 l 681 583 b 579 493 646 524 613 493 b 432 543 524 494 479 518 b 258 600 381 571 328 600 l 254 600 b 56 463 176 599 107 551 l 139 414 b 256 504 172 474 213 504 b 388 460 303 506 342 483 b 578 399 439 432 499 399 z m 579 201 b 771 325 649 201 714 232 l 689 372 b 583 296 663 313 617 296 b 432 346 521 296 504 307 b 258 403 381 374 328 403 l 254 403 b 63 249 168 401 114 338 l 146 200 b 256 307 179 260 213 307 b 388 263 303 308 342 286 b 578 201 439 235 499 201 z "},"~":{"ha":818,"x_min":0,"x_max":0,"o":"m 579 403 b 763 540 649 403 711 449 l 681 588 b 579 497 646 528 613 497 b 432 547 524 499 479 522 b 258 604 381 575 328 604 l 254 604 b 56 467 176 603 107 556 l 139 418 b 256 508 172 478 213 508 b 388 464 303 510 342 488 b 578 403 439 436 499 403 z "},"¬":{"ha":807,"x_min":0,"x_max":0,"o":"m 751 150 l 751 463 l 56 461 l 56 367 l 657 367 l 657 150 z "},"∅":{"ha":1038,"x_min":0,"x_max":0,"o":"m 774 847 l 815 925 l 719 925 l 699 888 b 518 924 643 911 582 924 b 56 460 263 924 56 715 b 263 75 56 299 138 157 l 222 0 l 318 0 l 336 35 b 518 -3 392 10 454 -3 b 982 460 774 -3 982 204 b 774 847 982 621 899 764 z m 136 460 b 519 843 136 671 308 843 b 661 815 569 843 617 833 l 300 146 b 136 460 201 215 136 331 z m 519 76 b 375 106 468 76 419 86 l 735 776 b 903 460 836 707 903 590 b 519 76 903 249 731 76 z "},"∞":{"ha":825,"x_min":0,"x_max":0,"o":"m 581 644 b 428 564 521 644 463 614 b 413 542 425 561 419 553 b 397 564 404 553 399 561 b 243 644 361 614 304 644 b 56 456 140 644 56 560 b 243 268 56 353 140 268 b 396 346 304 268 361 297 l 413 371 b 428 346 421 358 425 350 b 581 268 464 297 521 268 b 769 456 685 268 769 353 b 581 644 769 560 685 644 z m 319 401 b 243 363 301 378 274 363 b 150 456 192 363 150 404 b 243 549 150 507 192 549 b 319 510 274 549 301 533 l 356 457 b 319 401 339 432 322 407 z m 581 363 b 506 401 551 363 522 378 b 469 457 501 407 486 432 b 506 510 488 485 503 506 b 581 549 522 533 551 549 b 674 456 632 549 674 507 b 581 363 674 404 632 363 z "},"∫":{"ha":526,"x_min":0,"x_max":0,"o":"m 215 769 l 215 4 b 56 -156 215 -83 143 -156 l 56 -250 b 310 4 196 -250 310 -136 l 310 769 b 471 929 310 857 382 929 l 471 1024 b 215 769 329 1024 215 910 z "},"∏":{"ha":801,"x_min":0,"x_max":0,"o":"m 746 925 l 56 925 l 56 825 l 214 825 l 214 1 l 314 1 l 314 825 l 500 825 l 500 1 l 600 1 l 600 825 l 746 825 z "},"∑":{"ha":653,"x_min":0,"x_max":0,"o":"m 597 931 l 56 931 l 56 835 l 283 461 l 56 89 l 56 -6 l 597 -6 l 597 90 l 168 90 l 396 460 l 168 835 l 597 835 z "},"√":{"ha":794,"x_min":0,"x_max":0,"o":"m 486 925 l 253 151 l 160 371 l 56 371 l 214 0 l 307 0 l 557 831 l 739 831 l 739 925 z "},"∂":{"ha":674,"x_min":0,"x_max":0,"o":"m 601 313 b 574 392 592 339 582 365 b 514 560 554 447 533 503 l 460 717 b 404 829 446 757 432 796 b 321 894 382 857 353 879 b 110 901 254 928 176 931 b 107 901 108 901 108 901 l 144 814 b 199 826 143 817 193 826 b 251 819 217 826 235 825 b 339 758 286 810 318 788 b 422 536 363 724 410 571 l 439 486 b 446 467 440 483 443 469 b 356 496 418 485 386 493 b 56 235 201 507 67 389 b 318 -65 46 79 163 -54 b 617 196 472 -76 607 42 b 601 313 619 238 614 276 z m 522 203 b 324 29 515 100 426 22 b 151 228 222 36 144 126 b 350 401 158 331 247 408 b 522 203 451 394 529 306 z "},"%":{"ha":1061,"x_min":0,"x_max":0,"o":"m 258 925 b 449 733 364 925 449 839 b 258 543 449 629 364 543 b 68 733 153 543 68 629 b 258 925 68 839 153 925 z m 719 925 l 222 0 l 329 0 l 826 925 z m 258 829 b 163 733 206 829 163 786 b 258 638 163 681 206 638 b 354 733 311 638 354 681 b 258 829 354 786 311 829 z m 803 378 b 994 188 908 378 994 293 b 803 -3 994 82 908 -3 b 613 188 697 -3 613 82 b 803 378 613 293 697 378 z m 803 283 b 707 188 750 283 707 240 b 803 92 707 135 750 92 b 899 188 856 92 899 135 b 803 283 899 240 856 283 z "},"‰":{"ha":1363,"x_min":0,"x_max":0,"o":"m 246 925 b 436 733 351 925 436 839 b 246 543 436 629 351 543 b 56 733 140 543 56 629 b 246 925 56 839 140 925 z m 651 925 l 154 0 l 261 0 l 758 925 z m 246 829 b 150 733 193 829 150 786 b 246 638 150 681 193 638 b 342 733 299 638 342 681 b 246 829 342 786 299 829 z m 653 378 b 844 188 758 378 844 293 b 653 -3 844 82 758 -3 b 463 188 547 -3 463 82 b 653 378 463 293 547 378 z m 1115 378 b 1307 188 1221 378 1307 293 b 1115 -3 1307 82 1221 -3 b 925 188 1010 -3 925 82 b 1115 378 925 293 1010 378 z m 653 283 b 557 188 600 283 557 240 b 653 92 557 135 600 92 b 749 188 706 92 749 135 b 653 283 749 240 706 283 z m 1115 283 b 1019 188 1063 283 1019 240 b 1115 92 1019 135 1063 92 b 1211 188 1168 92 1211 135 b 1115 283 1211 240 1168 283 z "},"◊":{"ha":540,"x_min":0,"x_max":0,"o":"m 329 890 l 211 890 l 56 446 l 211 0 l 329 0 l 485 446 z m 271 114 l 154 446 l 271 776 l 386 446 z "},"@":{"ha":1042,"x_min":0,"x_max":0,"o":"m 521 926 b 56 461 265 926 56 718 b 521 -4 56 204 265 -4 b 638 10 561 -4 600 0 l 614 103 b 521 90 583 94 553 90 b 151 461 317 90 151 257 b 521 831 151 665 317 831 b 892 461 725 831 892 665 b 831 254 892 361 871 293 b 739 235 804 231 761 225 b 728 251 729 239 728 243 b 728 311 728 267 728 288 l 728 676 l 633 676 l 633 626 b 496 676 596 657 549 676 b 283 464 379 676 283 581 b 496 251 283 346 379 251 b 633 300 549 251 596 269 l 633 251 b 701 147 633 204 658 165 b 896 185 761 121 844 138 b 986 461 957 242 986 332 b 521 926 986 718 778 926 z m 496 346 b 379 464 432 346 379 399 b 496 581 379 528 432 581 b 614 464 561 581 614 528 b 496 346 614 399 561 346 z "},"&":{"ha":764,"x_min":0,"x_max":0,"o":"m 618 107 b 683 301 663 163 686 231 l 683 332 l 589 332 l 589 299 b 560 189 590 260 581 222 l 239 644 b 217 692 219 671 217 689 b 356 831 217 768 279 831 b 496 690 433 831 496 768 l 590 690 b 356 925 590 819 485 925 b 122 690 228 925 122 819 b 161 590 122 683 124 643 l 189 551 b 74 364 126 507 86 440 b 124 135 60 285 78 203 b 383 -6 185 43 285 -6 b 540 40 438 -6 492 10 l 543 43 l 546 44 l 547 44 l 578 0 l 694 0 z m 489 121 b 203 188 397 58 268 89 b 167 349 169 236 157 293 b 243 475 175 400 201 444 l 492 122 z "},"¶":{"ha":685,"x_min":0,"x_max":0,"o":"m 436 924 l 272 924 b 56 707 153 924 56 826 b 272 489 56 586 153 489 l 342 489 l 342 0 l 436 0 z m 615 0 l 615 924 l 521 924 l 521 0 z "},"§":{"ha":597,"x_min":0,"x_max":0,"o":"m 56 464 b 144 299 56 385 86 329 b 328 267 197 271 267 267 b 410 244 363 267 390 260 l 424 232 b 446 151 440 211 449 182 b 297 54 442 122 432 54 b 176 110 240 54 200 72 b 157 157 167 125 161 142 l 60 157 b 96 58 65 126 75 92 b 297 -40 125 14 183 -40 l 299 -40 b 539 139 439 -40 525 24 b 494 294 547 197 531 254 b 493 297 494 296 494 296 b 542 425 525 332 542 378 b 453 590 542 504 511 560 b 269 622 400 618 331 622 b 188 644 235 622 207 629 l 174 657 b 151 738 156 676 147 707 b 300 835 156 767 164 835 b 421 779 357 835 397 817 b 439 732 431 764 436 749 l 538 732 b 501 831 532 763 522 797 b 300 929 472 875 414 929 l 299 929 b 57 750 158 929 72 865 b 103 594 50 692 67 635 b 104 592 103 593 103 593 b 56 464 72 557 56 511 z m 151 464 b 186 540 151 494 164 521 b 269 528 208 532 236 528 b 446 425 392 528 446 513 b 411 349 446 394 433 368 b 328 361 388 357 361 361 b 151 464 206 361 151 376 z "},"©":{"ha":1042,"x_min":0,"x_max":0,"o":"m 521 925 b 986 460 778 925 986 717 b 521 -6 986 201 778 -6 b 56 460 264 -6 56 201 b 521 925 56 717 264 925 z m 521 829 b 151 460 318 829 151 663 b 521 89 151 256 318 89 b 892 460 725 89 892 256 b 521 829 892 663 725 829 z m 535 206 b 279 463 394 206 279 321 b 535 718 279 603 394 718 b 731 626 611 718 682 685 l 658 565 b 535 622 628 601 583 622 b 375 463 447 622 375 550 b 535 301 375 374 447 301 b 658 358 583 301 628 322 l 731 297 b 535 206 682 239 611 206 z "},"®":{"ha":747,"x_min":0,"x_max":0,"o":"m 381 929 b 61 610 204 929 61 785 b 381 290 61 433 204 290 b 700 610 557 290 700 433 b 381 929 700 785 557 929 z m 381 357 b 129 610 242 357 129 471 b 381 861 129 749 242 861 b 632 610 519 861 632 749 b 381 357 632 471 519 357 z m 501 675 b 379 796 501 742 446 796 l 279 796 l 279 454 l 347 454 l 347 539 l 424 454 l 514 454 l 419 560 b 501 675 467 576 501 622 z m 347 728 l 379 728 b 433 675 410 728 433 704 b 379 621 433 646 410 621 l 347 621 z "},"™":{"ha":628,"x_min":0,"x_max":0,"o":"m 517 924 l 411 785 l 304 924 l 249 924 l 249 624 l 303 624 l 303 838 l 386 728 l 436 728 l 519 838 l 519 625 l 572 625 l 572 924 z m 232 922 l 56 922 l 56 868 l 117 868 l 117 624 l 171 624 l 171 868 l 232 868 z "},"°":{"ha":493,"x_min":0,"x_max":0,"o":"m 246 975 b 438 785 351 975 438 890 b 246 594 438 679 351 594 b 56 785 140 594 56 679 b 246 975 56 890 140 975 z m 246 908 b 122 785 178 908 122 853 b 246 661 122 717 178 661 b 369 785 314 661 369 717 b 246 908 369 853 314 908 z "},"|":{"ha":239,"x_min":0,"x_max":0,"o":"m 169 0 l 169 924 l 69 924 l 69 0 z "},"¦":{"ha":239,"x_min":0,"x_max":0,"o":"m 169 560 l 169 925 l 69 925 l 69 560 z m 169 0 l 169 365 l 69 365 l 69 0 z "},"†":{"ha":515,"x_min":0,"x_max":0,"o":"m 460 721 l 307 721 l 307 924 l 207 924 l 207 721 l 56 721 l 56 621 l 207 621 l 207 260 l 307 260 l 307 621 l 460 621 z "},"‡":{"ha":515,"x_min":0,"x_max":0,"o":"m 460 621 l 460 721 l 307 721 l 307 924 l 207 924 l 207 721 l 56 721 l 56 621 l 207 621 l 207 521 l 56 521 l 56 421 l 207 421 l 207 260 l 307 260 l 307 421 l 460 421 l 460 521 l 307 521 l 307 621 z "},"^":{"ha":540,"x_min":0,"x_max":0,"o":"m 154 478 l 269 810 l 386 478 l 485 478 l 329 924 l 211 924 l 56 478 z "},"̈":{"ha":0,"x_min":0,"x_max":0,"o":"m -407 757 b -468 818 -440 757 -468 785 b -407 879 -468 851 -440 879 b -344 818 -372 879 -344 851 b -407 757 -344 785 -372 757 z m -160 757 b -221 818 -193 757 -221 785 b -160 879 -221 851 -193 879 b -97 818 -125 879 -97 851 b -160 757 -97 785 -125 757 z "},"̇":{"ha":0,"x_min":0,"x_max":0,"o":"m -160 757 b -221 818 -193 757 -221 785 b -160 879 -221 851 -193 879 b -97 818 -125 879 -97 851 b -160 757 -97 785 -125 757 z "},"̀":{"ha":0,"x_min":0,"x_max":0,"o":"m -140 989 l -237 989 l -162 763 l -76 763 z "},"́":{"ha":0,"x_min":0,"x_max":0,"o":"m -99 989 l -162 763 l -76 763 l -1 989 z "},"̋":{"ha":0,"x_min":0,"x_max":0,"o":"m -256 988 l -319 761 l -233 761 l -158 988 z m -99 988 l -162 761 l -76 761 l -1 988 z "},"̂":{"ha":0,"x_min":0,"x_max":0,"o":"m -164 757 l -58 757 l -235 939 l -419 757 l -311 757 l -236 831 z "},"̌":{"ha":0,"x_min":0,"x_max":0,"o":"m -164 939 l -236 865 l -311 939 l -419 939 l -235 757 l -58 939 z "},"̆":{"ha":0,"x_min":0,"x_max":0,"o":"m -132 947 b -182 869 -136 917 -154 888 b -337 901 -233 835 -303 849 b -356 947 -347 915 -353 932 l -432 947 b -401 858 -429 917 -419 886 b -243 774 -365 804 -304 774 b -140 806 -208 774 -172 785 b -56 947 -89 839 -60 892 z "},"̊":{"ha":0,"x_min":0,"x_max":0,"o":"m -436 744 b -367 765 -412 744 -389 751 b -332 940 -310 804 -293 882 b -506 975 -369 997 -449 1014 b -560 896 -533 957 -553 929 b -542 801 -567 863 -560 829 b -436 744 -517 765 -478 744 z m -436 939 b -379 908 -414 939 -393 928 b -399 814 -358 876 -367 835 b -494 833 -431 793 -474 801 b -504 885 -504 849 -507 867 b -475 928 -500 903 -490 918 b -436 939 -462 936 -450 939 z "},"̃":{"ha":0,"x_min":0,"x_max":0,"o":"m -118 883 b -182 819 -137 844 -156 822 b -250 842 -200 817 -222 828 b -358 876 -281 857 -317 875 b -446 839 -390 878 -421 865 b -483 790 -461 825 -474 808 l -421 740 b -415 753 -419 744 -417 749 b -361 799 -406 769 -385 799 b -286 772 -336 797 -311 785 b -167 742 -251 754 -211 733 b -56 835 -125 750 -90 781 z "},"̄":{"ha":0,"x_min":0,"x_max":0,"o":"m 0 792 l 0 861 l -446 861 l -446 792 z "},"̒":{"ha":0,"x_min":0,"x_max":0,"o":"m -204 790 l -108 790 l -56 978 l -142 978 z "},"̦":{"ha":0,"x_min":0,"x_max":0,"o":"m -337 0 l -436 0 l -493 -211 l -407 -211 z "},"̧":{"ha":0,"x_min":0,"x_max":0,"o":"m -162 -28 l -143 21 l -219 21 l -242 -36 l -214 -101 b -189 -96 -206 -99 -199 -96 b -128 -158 -156 -96 -128 -125 b -189 -219 -128 -192 -156 -219 b -231 -204 -204 -219 -219 -214 l -279 -257 b -189 -292 -254 -279 -222 -292 b -56 -158 -115 -292 -56 -232 b -162 -28 -56 -94 -101 -40 z "},"̨":{"ha":0,"x_min":0,"x_max":0,"o":"m -53 -289 b 50 -239 -24 -287 17 -278 l -6 -187 b -79 -211 -36 -221 -75 -212 b -126 -136 -112 -203 -133 -169 b -68 -83 -121 -108 -97 -86 b -35 -83 -54 -81 -35 -83 l -33 10 l -107 8 l -108 -15 b -200 -122 -156 -32 -190 -71 b -97 -286 -215 -194 -169 -268 b -53 -289 -90 -287 -75 -290 z "},"̵":{"ha":0,"x_min":0,"x_max":0,"o":"m -801 356 l -101 356 l -101 439 l -801 439 z "},"̷":{"ha":0,"x_min":0,"x_max":0,"o":"m -56 758 l -162 758 l -578 -14 l -471 -14 z "},"̸":{"ha":0,"x_min":0,"x_max":0,"o":"m -162 925 l -660 0 l -553 0 l -56 925 z "},"´":{"ha":833,"x_min":0,"x_max":0,"o":"m 174 989 l 110 763 l 196 763 l 271 989 z "},"˘":{"ha":833,"x_min":0,"x_max":0,"o":"m 356 947 b 306 869 351 917 333 888 b 150 901 254 835 185 849 b 132 947 140 915 135 932 l 56 947 b 86 858 58 917 68 886 b 244 774 122 804 183 774 b 347 806 279 774 315 785 b 432 947 399 839 428 892 z "},"ˇ":{"ha":833,"x_min":0,"x_max":0,"o":"m 308 939 l 236 865 l 161 939 l 53 939 l 238 757 l 414 939 z "},"¸":{"ha":833,"x_min":0,"x_max":0,"o":"m 172 -28 l 192 21 l 115 21 l 93 -36 l 121 -101 b 146 -96 129 -99 136 -96 b 207 -158 179 -96 207 -125 b 146 -219 207 -192 179 -219 b 104 -204 131 -219 115 -214 l 56 -257 b 146 -292 81 -279 113 -292 b 279 -158 219 -292 279 -232 b 172 -28 279 -94 233 -40 z "},"ˆ":{"ha":833,"x_min":0,"x_max":0,"o":"m 308 757 l 414 757 l 238 939 l 53 757 l 161 757 l 236 831 z "},"¨":{"ha":833,"x_min":0,"x_max":0,"o":"m 75 757 b 14 818 42 757 14 785 b 75 879 14 851 42 879 b 138 818 110 879 138 851 b 75 757 138 785 110 757 z m 322 757 b 261 818 289 757 261 785 b 322 879 261 851 289 879 b 385 818 357 879 385 851 b 322 757 385 785 357 757 z "},"˙":{"ha":833,"x_min":0,"x_max":0,"o":"m 75 757 b 14 818 42 757 14 785 b 75 879 14 851 42 879 b 138 818 110 879 138 851 b 75 757 138 785 110 757 z "},"`":{"ha":833,"x_min":0,"x_max":0,"o":"m 132 989 l 35 989 l 110 763 l 196 763 z "},"˝":{"ha":833,"x_min":0,"x_max":0,"o":"m 174 988 l 110 761 l 196 761 l 271 988 z m 331 988 l 267 761 l 353 761 l 428 988 z "},"¯":{"ha":833,"x_min":0,"x_max":0,"o":"m 446 792 l 446 861 l 0 861 l 0 792 z "},"˛":{"ha":833,"x_min":0,"x_max":0,"o":"m 307 -289 b 410 -239 336 -287 376 -278 l 354 -187 b 281 -211 324 -221 285 -212 b 233 -136 247 -203 226 -169 b 292 -83 239 -108 263 -86 b 325 -83 306 -81 325 -83 l 326 10 l 253 8 l 251 -15 b 160 -122 204 -32 169 -71 b 263 -286 144 -194 190 -268 b 307 -289 269 -287 285 -290 z "},"˚":{"ha":833,"x_min":0,"x_max":0,"o":"m 397 744 b 467 765 421 744 444 751 b 501 940 524 804 540 882 b 328 975 464 997 385 1014 b 274 896 300 957 281 929 b 292 801 267 863 274 829 b 397 744 317 765 356 744 z m 397 939 b 454 908 419 939 440 928 b 435 814 475 876 467 835 b 339 833 403 793 360 801 b 329 885 329 849 326 867 b 358 928 333 903 343 918 b 397 939 371 936 383 939 z "},"˜":{"ha":833,"x_min":0,"x_max":0,"o":"m 421 883 b 357 819 401 844 383 822 b 289 842 339 817 317 828 b 181 876 258 857 222 875 b 93 839 149 878 118 865 b 56 790 78 825 65 808 l 118 740 b 124 753 119 744 122 749 b 178 799 133 769 154 799 b 253 772 203 797 228 785 b 372 742 288 754 328 733 b 483 835 414 750 449 781 z "}}}
